<svg xmlns="http://www.w3.org/2000/svg" width="32" height="32" viewBox="0 0 32 32">
    <path stroke="#449FDB" d="M0 0"/>
    <path d="M8.233 23.73c0 .845.715 1.268 2.146 1.268 1.25 0 1.877-.44 1.877-1.317 0-.828-.683-1.243-2.048-1.243-1.318 0-1.976.43-1.976 1.292zM26.667 0H5.334C2.4 0 0 2.4 0 5.334v21.332C0 29.602 2.4 32 5.334 32h21.333C29.6 32 32 29.602 32 26.666V5.334C32 2.4 29.6 0 26.667 0zm-11.8 12.78c-.228.082-.553.172-.975.27.13.373.195.722.195 1.048 0 1.04-.313 1.947-.94 2.72s-1.434 1.23-2.425 1.377c-.65.098-.975.447-.975 1.05 0 .21.106.422.317.633.276.31.683.504 1.22.585 2.324.358 3.486 1.325 3.486 2.902 0 2.52-1.504 3.78-4.51 3.78-1.237 0-2.253-.22-3.05-.658-1.007-.553-1.51-1.422-1.51-2.61 0-1.365.755-2.3 2.267-2.803v-.05c-.553-.34-.83-.86-.83-1.56 0-.91.26-1.48.78-1.707v-.05c-.52-.178-.983-.584-1.39-1.22-.454-.682-.682-1.413-.682-2.194 0-1.17.415-2.146 1.244-2.926.796-.732 1.747-1.097 2.852-1.097.797 0 1.536.195 2.22.585.78 0 1.682-.195 2.706-.585v2.512zm3.95 8.44h-2.755c.033-.326.05-.88.05-1.66v-7.583c0-.764-.017-1.293-.05-1.585h2.756c-.033.31-.05.82-.05 1.536v7.486c0 .83.017 1.43.05 1.805zm-.182-13.267c-.333.358-.728.536-1.183.536-.47 0-.874-.18-1.207-.537s-.5-.78-.5-1.268c0-.504.167-.935.5-1.293s.736-.537 1.207-.537c.455 0 .85.18 1.183.537s.5.788.5 1.293c0 .488-.167.91-.5 1.268zM26.303 20.9c-.602.326-1.325.49-2.17.49-1.188 0-2.01-.423-2.464-1.27-.343-.633-.513-1.633-.513-2.998v-4.365h.024v-.05l-.365-.023c-.21 0-.488.024-.83.073v-2.365h1.196v-.95c0-.456-.023-.822-.072-1.1h2.83c-.05.31-.074.66-.074 1.05v1h2.12v2.365c-.08 0-.23-.008-.45-.024s-.427-.025-.622-.025h-1.05v4.536c0 1.09.36 1.634 1.074 1.634.504 0 .96-.138 1.366-.415v2.44zm-16.265-8.387c-1.024 0-1.536.602-1.536 1.805 0 1.122.512 1.683 1.536 1.683.992 0 1.488-.568 1.488-1.706 0-.472-.114-.878-.34-1.22-.277-.373-.66-.56-1.147-.56z"/>
</svg>
