<svg xmlns="http://www.w3.org/2000/svg" width="32" height="32" viewBox="0 0 32 32">
    <path stroke="#449FDB" d="M0 0"/>
    <path d="M32 19.003v-6.006l-4.587-.764c-.186-.567-.413-1.115-.678-1.64l2.702-3.783-4.247-4.247-3.776 2.697c-.528-.267-1.08-.497-1.65-.684L19.003 0h-6.006l-.763 4.576c-.57.188-1.12.417-1.65.684L6.81 2.563 2.56 6.81l2.703 3.782c-.265.526-.492 1.074-.678 1.64l-4.587.765v6.006l4.597.766c.186.56.413 1.104.676 1.625L2.56 25.19l4.247 4.247 3.802-2.715c.518.26 1.058.485 1.617.67L12.995 32H19l.77-4.61c.558-.184 1.098-.408 1.617-.67l3.802 2.716 4.246-4.247-2.71-3.796c.263-.52.49-1.064.675-1.626L32 19.002zM16 20c-2.21 0-4-1.79-4-4s1.79-4 4-4 4 1.79 4 4-1.79 4-4 4z"/>
</svg>
