<svg xmlns="http://www.w3.org/2000/svg" width="310" height="380" viewBox="0 0 310 380" overflow="scroll">
    <path d="M135.587 160.335v63.7c0 1.244-1.018 2.238-2.262 2.208-49.38-1.2-89.042-41.607-89.042-91.276 0-49.707 39.72-90.136 89.153-91.28 1.182-.026 2.15-1.018 2.15-2.2V6.19c0-1.24-1.014-2.228-2.254-2.207C62.024 5.188 4.586 63.37 4.586 134.967c0 72.042 58.153 130.5 130.077 130.998.508.004 1.217-.29 1.576-.65l19.194-19.195 19.203-19.2c.355-.356.646-1.058.646-1.56V120.442c0-2.928-1.694-3.63-3.765-1.56l-32.03 32.03c-2.146 2.146-3.903 6.386-3.903 9.422z"/>
    <path d="M171.994 118.41L139.448 151c-2.123 2.127-3.86 6.326-3.86 9.33v.055c1.387-3.582 3.787-5.522 8.834-5.565l3.68-.005h27.182c3.538 0 7.03.2 10.462.593 45.5 5.19 80.842 43.823 80.842 90.71 0 47.713-36.597 86.877-83.25 90.954-1.914.167-3.845.275-5.79.323-1.24.03-2.264-.967-2.264-2.208v-75.804c0-1.965-2.376-2.95-3.765-1.56l-34.643 34.642c-.71.71-1.292 2.114-1.292 3.12v77.125c0 2.426 1.985 4.41 4.41 4.41h35.287c2.803 0 5.585-.087 8.344-.26 68.462-4.303 122.657-61.193 122.657-130.74 0-70.727-56.05-128.363-126.153-130.913-3.037-.11-5.986 1.052-8.136 3.202z"/>
</svg>
