<svg xmlns="http://www.w3.org/2000/svg" width="32" height="32" viewBox="0 0 32 32">
    <path d="M26.666 0H5.334C2.4 0 0 2.4 0 5.333v21.333C0 29.6 2.4 32 5.334 32h21.332C29.602 32 32 29.6 32 26.666V5.333C32 2.4 29.602 0 26.666 0zM8 8h16c.286 0 .563.06.817.177L16 18.463 7.183 8.176C7.437 8.06 7.713 8 8 8zM6 22V10c0-.042.002-.084.004-.125l5.864 6.842-5.8 5.8c-.045-.167-.07-.34-.07-.517zm18 2H8c-.177 0-.35-.024-.517-.07l5.69-5.69L16 21.537l2.826-3.297 5.69 5.69c-.166.046-.34.07-.516.07zm2-2c0 .177-.024.35-.07.517l-5.8-5.8 5.865-6.842c.003.04.004.083.004.125v12z"/>
</svg>
