<svg xmlns="http://www.w3.org/2000/svg" width="32" height="32" viewBox="0 0 32 32">
    <path d="M27.52 4.087c.803.393 1.503.953 2.016 1.64 1.08 1.447 1.382 3.418.9 5.858-.485 2.47-1.574 4.554-3.16 6.064-.29.302-.6.585-.93.845-1.7 1.338-3.845 2.045-6.204 2.045H12.64L10.622 30H6.484l.315-1.447h1.44l2.02-9.46h5.882c5.633 0 10.342-3.47 11.602-9.373C29.174 3.038 24.382 0 20.262 0H6.222L.002 28.553h4.75L4.002 32h8.238l2.018-9.46h5.883c5.634 0 10.343-3.47 11.603-9.373 1.054-4.928-1.275-7.873-4.222-9.08zM13.198 5.815h4.035c2.018 0 3.363 1.736 2.775 3.905-.504 2.17-2.606 3.905-4.707 3.905h-3.866l1.765-7.81z"/>
</svg>
