<svg xmlns="http://www.w3.org/2000/svg" width="32" height="32" viewBox="0 0 32 32">
    <path d="M32 16c-.04-2.09-.493-4.172-1.33-6.077-.835-1.906-2.047-3.633-3.534-5.06-1.486-1.428-3.248-2.557-5.156-3.302C20.074.814 18.024.457 16 .5c-2.026.04-4.043.48-5.886 1.292-1.845.81-3.517 1.983-4.898 3.424S2.742 8.363 2.023 10.21C1.3 12.056.956 14.04 1 16c.04 1.96.468 3.91 1.254 5.694.784 1.784 1.92 3.4 3.316 4.736 1.394 1.336 3.046 2.39 4.832 3.085 1.785.697 3.7 1.028 5.598.985 1.897-.04 3.78-.455 5.502-1.216 1.723-.76 3.285-1.86 4.574-3.208 1.29-1.348 2.308-2.945 2.977-4.67.407-1.046.684-2.137.83-3.244.038.002.077.004.117.004 1.105 0 2-.895 2-2 0-.056-.003-.112-.007-.167H32zm-3.178 5.31c-.733 1.664-1.796 3.17-3.1 4.413s-2.843 2.225-4.507 2.868c-1.663.647-3.447.953-5.215.91-1.77-.04-3.52-.43-5.12-1.14-1.6-.708-3.052-1.734-4.25-2.99s-2.14-2.744-2.76-4.347C3.25 19.42 2.96 17.703 3 16c.04-1.706.417-3.39 1.102-4.93.683-1.54 1.672-2.936 2.883-4.087S9.627 4.925 11.17 4.33c1.54-.595 3.19-.874 4.83-.832 1.642.04 3.258.404 4.737 1.064 1.48.658 2.82 1.61 3.926 2.774s1.975 2.54 2.543 4.02c.57 1.482.837 3.065.794 4.642h.007c-.005.055-.007.11-.007.167 0 1.032.78 1.88 1.784 1.988-.195 1.088-.517 2.15-.962 3.156z"/>
</svg>
