<?xml version="1.0" standalone="no"?>
<!DOCTYPE svg PUBLIC "-//W3C//DTD SVG 20010904//EN"
 "http://www.w3.org/TR/2001/REC-SVG-20010904/DTD/svg10.dtd">
<svg version="1.0" xmlns="http://www.w3.org/2000/svg"
 width="500.000000pt" height="500.000000pt" viewBox="0 0 500.000000 500.000000"
 preserveAspectRatio="xMidYMid meet">
<metadata>
Created by potrace 1.11, written by Peter Selinger 2001-2013
</metadata>
<g transform="translate(0.000000,500.000000) scale(0.100000,-0.100000)"
fill="#000000" stroke="none">
<path d="M2082 4339 c-511 -88 -926 -477 -1047 -984 -172 -715 277 -1428 998
-1584 53 -12 136 -23 184 -26 l89 -5 198 199 199 199 0 357 0 357 76 -6 c293
-22 565 -195 713 -451 171 -296 161 -666 -25 -952 -120 -186 -308 -324 -517
-381 -97 -27 -229 -42 -238 -28 -4 6 -7 183 -8 394 -1 279 -4 386 -13 395 -9
9 -55 -32 -198 -175 l-187 -187 -1 -397 c0 -322 3 -400 14 -416 13 -19 24 -20
290 -15 298 5 344 11 516 68 246 82 469 245 623 453 76 103 81 112 133 216 41
84 81 200 105 305 19 85 28 378 14 450 -6 28 -15 75 -21 105 -98 484 -531 903
-1028 995 -123 22 -208 26 -245 11 -30 -13 -368 -344 -389 -382 -7 -12 -11
-143 -13 -354 -1 -184 -2 -341 -3 -349 -1 -10 -17 -12 -78 -7 -357 28 -680
287 -783 626 -16 52 -32 115 -36 140 -10 64 -12 206 -3 254 4 23 10 58 13 78
30 194 198 442 381 564 131 88 304 147 445 153 25 1 50 7 55 12 14 14 15 378
1 381 -41 6 -131 1 -214 -13z"/>
</g>
</svg>
