<?xml version="1.0" encoding="utf-8"?>
<!-- Generator: Adobe Illustrator 19.0.0, SVG Export Plug-In . SVG Version: 6.00 Build 0)  -->
<svg version="1.1" id="Layer_1" xmlns="http://www.w3.org/2000/svg" xmlns:xlink="http://www.w3.org/1999/xlink" x="0px" y="0px"
	 width="32px" height="32px" viewBox="-289 381 32 32" enable-background="new -289 381 32 32" xml:space="preserve">
<path fill="#9362C4" d="M-262.4,381h-21.3c-3,0-5.4,2.4-5.4,5.4v21.3c0,3,2.4,5.4,5.4,5.4h21.3c3,0,5.4-2.4,5.4-5.4v-21.3
	C-257,383.4-259.4,381-262.4,381z M-277,407h-4v-14h4V407z M-279,391c-1.1,0-2-0.9-2-2s0.9-2,2-2s2,0.9,2,2S-277.9,391-279,391z
	 M-263,407h-4v-8c0-1.1-0.9-2-2-2s-2,0.9-2,2v8h-4v-14h4v2.5c0.8-1.1,2.1-2.5,3.5-2.5c2.5,0,4.5,2.2,4.5,5V407z"/>
</svg>
