<svg xmlns="http://www.w3.org/2000/svg" style="display: none;">
    <symbol id="icon-cog" viewBox="0 0 32 32">
      <title>cog icon</title>
      <path stroke="#449FDB" d="M0 0"/><path d="M32 19.003v-6.006l-4.587-.764c-.186-.567-.413-1.115-.678-1.64l2.702-3.783-4.247-4.247-3.776 2.697c-.528-.267-1.08-.497-1.65-.684L19.003 0h-6.006l-.763 4.576c-.57.188-1.12.417-1.65.684L6.81 2.563 2.56 6.81l2.703 3.782c-.265.526-.492 1.074-.678 1.64l-4.587.765v6.006l4.597.766c.186.56.413 1.104.676 1.625L2.56 25.19l4.247 4.247 3.802-2.715c.518.26 1.058.485 1.617.67L12.995 32H19l.77-4.61c.558-.184 1.098-.408 1.617-.67l3.802 2.716 4.246-4.247-2.71-3.796c.263-.52.49-1.064.675-1.626L32 19.002zM16 20c-2.21 0-4-1.79-4-4s1.79-4 4-4 4 1.79 4 4-1.79 4-4 4z"/>
    </symbol>
    <symbol id="icon-folder" viewBox="0 0 32 32">
      <title>folder icon</title>
      <path d="M0 10h32l-2 20H2L0 10zm29-4l1 2H2l2-4h11l1 2h13z"/>
    </symbol>
    <symbol id="icon-GD-logo2" viewBox="0 0 310 380">
      <title>GD-logo2 icon</title>
      <path fill="#3E215A" d="M135.587 160.335v63.7c0 1.244-1.018 2.238-2.262 2.208-49.38-1.2-89.042-41.607-89.042-91.276 0-49.707 39.72-90.136 89.153-91.28 1.182-.026 2.15-1.018 2.15-2.2V6.19c0-1.24-1.014-2.228-2.254-2.207C62.024 5.188 4.586 63.37 4.586 134.967c0 72.042 58.153 130.5 130.077 130.998.508.004 1.217-.29 1.576-.65l19.194-19.195 19.203-19.2c.355-.356.646-1.058.646-1.56V120.442c0-2.928-1.694-3.63-3.765-1.56l-32.03 32.03c-2.146 2.146-3.903 6.386-3.903 9.422z"/><path fill="#8DC63F" d="M171.994 118.41L139.448 151c-2.123 2.127-3.86 6.326-3.86 9.33v.055c1.387-3.582 3.787-5.522 8.834-5.565l3.68-.005h27.182c3.538 0 7.03.2 10.462.593 45.5 5.19 80.842 43.823 80.842 90.71 0 47.713-36.597 86.877-83.25 90.954-1.914.167-3.845.275-5.79.323-1.24.03-2.264-.967-2.264-2.208v-75.804c0-1.965-2.376-2.95-3.765-1.56l-34.643 34.642c-.71.71-1.292 2.114-1.292 3.12v77.125c0 2.426 1.985 4.41 4.41 4.41h35.287c2.803 0 5.585-.087 8.344-.26 68.462-4.303 122.657-61.193 122.657-130.74 0-70.727-56.05-128.363-126.153-130.913-3.037-.11-5.986 1.052-8.136 3.202z"/>
    </symbol>
    <symbol id="icon-github" viewBox="0 0 32 32">
      <title>github icon</title>
      <path stroke="#449FDB" d="M0 0"/><path d="M0 17.388c0 1.45.136 2.762.407 3.935s.647 2.193 1.127 3.06c.48.865 1.09 1.626 1.83 2.284s1.545 1.195 2.41 1.612c.867.416 1.855.755 2.966 1.016s2.245.443 3.403.548c1.158.104 2.43.156 3.818.156 1.4 0 2.677-.052 3.835-.156s2.295-.287 3.41-.548c1.117-.26 2.11-.6 2.982-1.017s1.68-.955 2.425-1.613c.746-.657 1.36-1.42 1.846-2.285s.863-1.886 1.134-3.06c.27-1.173.407-2.485.407-3.934 0-2.587-.867-4.825-2.598-6.713.094-.25.18-.535.258-.853s.15-.772.22-1.36c.067-.59.04-1.27-.08-2.043s-.34-1.56-.664-2.364L28.9 4.01c-.166-.032-.44-.024-.82.023s-.825.14-1.33.282c-.507.14-1.16.412-1.957.814s-1.64.904-2.527 1.51c-1.523-.418-3.615-.627-6.275-.627-2.65 0-4.735.21-6.258.626-.887-.606-1.734-1.11-2.543-1.51s-1.454-.674-1.934-.815c-.48-.14-.928-.232-1.346-.274s-.68-.054-.79-.038c-.11.016-.196.034-.258.055-.323.803-.545 1.59-.665 2.363S2.05 7.873 2.12 8.462c.067.59.14 1.043.218 1.36s.164.603.258.854C.864 12.564-.002 14.802-.002 17.39zm3.928 3.927c0-1.502.683-2.88 2.05-4.13.407-.377.88-.66 1.424-.854s1.155-.3 1.84-.328c.682-.026 1.337-.02 1.963.016s1.398.086 2.316.15c.92.062 1.712.093 2.38.093s1.46-.03 2.378-.093c.918-.063 1.69-.112 2.316-.15s1.28-.04 1.964-.015c.683.026 1.296.136 1.84.33s1.016.476 1.423.852c1.368 1.23 2.05 2.608 2.05 4.13 0 .898-.11 1.694-.336 2.387s-.51 1.276-.86 1.746-.835.868-1.456 1.197-1.226.582-1.815.76c-.59.176-1.346.315-2.27.414s-1.746.16-2.47.18c-.726.02-1.647.03-2.763.03s-2.037-.01-2.762-.03c-.725-.02-1.55-.08-2.472-.18s-1.68-.237-2.27-.415c-.588-.177-1.193-.43-1.814-.76s-1.106-.727-1.455-1.196c-.35-.47-.636-1.05-.86-1.745s-.337-1.488-.337-2.385zM20 21c0-1.657.895-3 2-3s2 1.343 2 3-.895 3-2 3-2-1.343-2-3zM8 21c0-1.657.895-3 2-3s2 1.343 2 3-.895 3-2 3-2-1.343-2-3z"/>
    </symbol>
    <symbol id="icon-github2" viewBox="0 0 32 32">
      <title>github2 icon</title>
      <path stroke="#449FDB" d="M0 0"/><path d="M8.233 23.73c0 .845.715 1.268 2.146 1.268 1.25 0 1.877-.44 1.877-1.317 0-.828-.683-1.243-2.048-1.243-1.318 0-1.976.43-1.976 1.292zM26.667 0H5.334C2.4 0 0 2.4 0 5.334v21.332C0 29.602 2.4 32 5.334 32h21.333C29.6 32 32 29.602 32 26.666V5.334C32 2.4 29.6 0 26.667 0zm-11.8 12.78c-.228.082-.553.172-.975.27.13.373.195.722.195 1.048 0 1.04-.313 1.947-.94 2.72s-1.434 1.23-2.425 1.377c-.65.098-.975.447-.975 1.05 0 .21.106.422.317.633.276.31.683.504 1.22.585 2.324.358 3.486 1.325 3.486 2.902 0 2.52-1.504 3.78-4.51 3.78-1.237 0-2.253-.22-3.05-.658-1.007-.553-1.51-1.422-1.51-2.61 0-1.365.755-2.3 2.267-2.803v-.05c-.553-.34-.83-.86-.83-1.56 0-.91.26-1.48.78-1.707v-.05c-.52-.178-.983-.584-1.39-1.22-.454-.682-.682-1.413-.682-2.194 0-1.17.415-2.146 1.244-2.926.796-.732 1.747-1.097 2.852-1.097.797 0 1.536.195 2.22.585.78 0 1.682-.195 2.706-.585v2.512zm3.95 8.44h-2.755c.033-.326.05-.88.05-1.66v-7.583c0-.764-.017-1.293-.05-1.585h2.756c-.033.31-.05.82-.05 1.536v7.486c0 .83.017 1.43.05 1.805zm-.182-13.267c-.333.358-.728.536-1.183.536-.47 0-.874-.18-1.207-.537s-.5-.78-.5-1.268c0-.504.167-.935.5-1.293s.736-.537 1.207-.537c.455 0 .85.18 1.183.537s.5.788.5 1.293c0 .488-.167.91-.5 1.268zM26.303 20.9c-.602.326-1.325.49-2.17.49-1.188 0-2.01-.423-2.464-1.27-.343-.633-.513-1.633-.513-2.998v-4.365h.024v-.05l-.365-.023c-.21 0-.488.024-.83.073v-2.365h1.196v-.95c0-.456-.023-.822-.072-1.1h2.83c-.05.31-.074.66-.074 1.05v1h2.12v2.365c-.08 0-.23-.008-.45-.024s-.427-.025-.622-.025h-1.05v4.536c0 1.09.36 1.634 1.074 1.634.504 0 .96-.138 1.366-.415v2.44zm-16.265-8.387c-1.024 0-1.536.602-1.536 1.805 0 1.122.512 1.683 1.536 1.683.992 0 1.488-.568 1.488-1.706 0-.472-.114-.878-.34-1.22-.277-.373-.66-.56-1.147-.56z"/>
    </symbol>
    <symbol id="icon-linkedin" viewBox="0 0 32 32">
      <title>linkedin icon</title>
      <path stroke="#449FDB" d="M0 0"/><path d="M26.625 0H5.375C2.42 0 0 2.42 0 5.375v21.25C0 29.58 2.42 32 5.375 32h21.25C29.58 32 32 29.58 32 26.625V5.375C32 2.42 29.58 0 26.625 0zM12 26H8V12h4v14zm-2-16c-1.105 0-2-.895-2-2s.895-2 2-2 2 .895 2 2-.895 2-2 2zm16 16h-4v-8c0-1.105-.895-2-2-2s-2 .895-2 2v8h-4V12h4v2.483C18.825 13.35 20.086 12 21.5 12c2.485 0 4.5 2.24 4.5 5v9z"/>
    </symbol>
    <symbol id="icon-menu" viewBox="0 0 32 32">
      <title>menu icon</title>
      <path stroke="#449FDB" d="M0 0"/><path d="M2 6h28v6H2zm0 8h28v6H2zm0 8h28v6H2z"/>
    </symbol>
    <symbol id="icon-spinner" viewBox="0 0 32 32">
      <title>spinner icon</title>
      <path stroke="#449FDB" d="M0 0"/><path d="M16 0C7.29 0 .204 6.96.005 15.624.19 8.066 5.937 2 13 2c7.18 0 13 6.268 13 14 0 1.657 1.343 3 3 3s3-1.343 3-3c0-8.837-7.163-16-16-16zm0 32c8.71 0 15.796-6.96 15.995-15.624C31.81 23.934 26.063 30 19 30c-7.18 0-13-6.268-13-14 0-1.657-1.343-3-3-3s-3 1.343-3 3c0 8.837 7.163 16 16 16z"/>
    </symbol>
    <symbol id="icon-twitter" viewBox="0 0 32 32">
      <title>twitter icon</title>
      <path stroke="#449FDB" d="M0 0"/><path d="M26.667 0H5.334C2.4 0 0 2.4 0 5.334v21.332C0 29.602 2.4 32 5.334 32h21.333C29.6 32 32 29.602 32 26.666V5.334C32 2.4 29.6 0 26.667 0zm-.478 10.682c.01.23.014.46.014.692 0 7.07-5.288 15.22-14.958 15.22-2.97 0-5.732-.885-8.06-2.403.412.05.83.076 1.255.076 2.464 0 4.73-.855 6.53-2.29-2.3-.043-4.242-1.59-4.91-3.715.32.064.65.097.988.097.48 0 .944-.066 1.385-.188-2.405-.493-4.217-2.655-4.217-5.246v-.067c.71.4 1.52.64 2.38.67-1.41-.96-2.338-2.598-2.338-4.454 0-.98.26-1.9.712-2.69 2.593 3.238 6.467 5.367 10.836 5.59-.09-.392-.136-.8-.136-1.22 0-2.953 2.354-5.348 5.257-5.348 1.512 0 2.88.65 3.838 1.69 1.198-.24 2.323-.686 3.338-1.3-.393 1.25-1.226 2.3-2.31 2.96 1.062-.128 2.076-.416 3.018-.84-.704 1.072-1.595 2.014-2.622 2.768z"/>
    </symbol></svg>