<?xml version="1.0" encoding="UTF-8"?><!DOCTYPE svg PUBLIC "-//W3C//DTD SVG 1.1//EN" "http://www.w3.org/Graphics/SVG/1.1/DTD/svg11.dtd"><svg xmlns="http://www.w3.org/2000/svg" xmlns:xlink="http://www.w3.org/1999/xlink"><symbol id="icon-address-book" viewBox="0 0 32 32">
<path d="M6 0v32h24v-32h-24zM18 8.010c2.203 0 3.99 1.786 3.99 3.99s-1.786 3.99-3.99 3.99-3.99-1.786-3.99-3.99 1.786-3.99 3.99-3.99v0zM24 24h-12v-2c0-2.209 1.791-4 4-4v0h4c2.209 0 4 1.791 4 4v2z" fill="currentcolor"/>
<path d="M2 2h3v6h-3v-6z" fill="currentcolor"/>
<path d="M2 10h3v6h-3v-6z" fill="currentcolor"/>
<path d="M2 18h3v6h-3v-6z" fill="currentcolor"/>
<path d="M2 26h3v6h-3v-6z" fill="currentcolor"/>
</symbol><symbol id="icon-bubble" viewBox="0 0 32 32">
<path d="M16 2c8.837 0 16 5.82 16 13s-7.163 13-16 13c-0.849 0-1.682-0.054-2.495-0.158-3.437 3.437-7.539 4.053-11.505 4.144v-0.841c2.142-1.049 4-2.961 4-5.145 0-0.305-0.024-0.604-0.068-0.897-3.619-2.383-5.932-6.024-5.932-10.103 0-7.18 7.163-13 16-13z" fill="currentcolor"/>
</symbol><symbol id="icon-cancel-circle" viewBox="0 0 32 32">
<path d="M16 0c-8.837 0-16 7.163-16 16s7.163 16 16 16 16-7.163 16-16-7.163-16-16-16zM16 29c-7.18 0-13-5.82-13-13s5.82-13 13-13 13 5.82 13 13-5.82 13-13 13z" fill="currentcolor"/>
<path d="M21 8l-5 5-5-5-3 3 5 5-5 5 3 3 5-5 5 5 3-3-5-5 5-5z" fill="currentcolor"/>
</symbol><symbol id="icon-cart" viewBox="0 0 32 32">
<path d="M12 29c0 1.657-1.343 3-3 3s-3-1.343-3-3c0-1.657 1.343-3 3-3s3 1.343 3 3z" fill="currentcolor"/>
<path d="M32 29c0 1.657-1.343 3-3 3s-3-1.343-3-3c0-1.657 1.343-3 3-3s3 1.343 3 3z" fill="currentcolor"/>
<path d="M32 16v-12h-24c0-1.105-0.895-2-2-2h-6v2h4l1.502 12.877c-0.915 0.733-1.502 1.859-1.502 3.123 0 2.209 1.791 4 4 4h24v-2h-24c-1.105 0-2-0.895-2-2 0-0.007 0-0.014 0-0.020l26-3.98z" fill="currentcolor"/>
</symbol><symbol id="icon-checkmark" viewBox="0 0 32 32">
<path d="M27 4l-15 15-7-7-5 5 12 12 20-20z" fill="currentcolor"/>
</symbol><symbol id="icon-cog" viewBox="0 0 32 32">
<g id="icomoon-ignore">
	<line stroke-width="1" x1="" y1="" x2="" y2="" stroke="#449FDB" opacity=""/>
</g>
	<path d="M32 19.003v-6.006l-4.587-0.764c-0.186-0.567-0.413-1.115-0.678-1.641l2.702-3.782-4.247-4.247-3.776 2.697c-0.528-0.267-1.079-0.497-1.649-0.684l-0.763-4.575h-6.006l-0.763 4.575c-0.57 0.188-1.121 0.417-1.649 0.684l-3.776-2.697-4.247 4.247 2.702 3.782c-0.265 0.526-0.492 1.074-0.678 1.641l-4.587 0.764v6.006l4.597 0.766c0.186 0.561 0.413 1.105 0.676 1.626l-2.711 3.795 4.247 4.247 3.802-2.715c0.519 0.261 1.059 0.485 1.618 0.67l0.768 4.608h6.006l0.768-4.609c0.559-0.185 1.099-0.409 1.618-0.67l3.802 2.715 4.247-4.247-2.711-3.795c0.264-0.521 0.49-1.064 0.676-1.626l4.597-0.766zM16 20c-2.209 0-4-1.791-4-4s1.791-4 4-4c2.209 0 4 1.791 4 4s-1.791 4-4 4z" fill="currentcolor"/>
</symbol><symbol id="icon-coin-dollar" viewBox="0 0 32 32">
<path d="M15 2c-8.284 0-15 6.716-15 15s6.716 15 15 15c8.284 0 15-6.716 15-15s-6.716-15-15-15zM15 29c-6.627 0-12-5.373-12-12s5.373-12 12-12c6.627 0 12 5.373 12 12s-5.373 12-12 12zM16 16v-4h4v-2h-4v-2h-2v2h-4v8h4v4h-4v2h4v2h2v-2h4l-0-8h-4zM14 16h-2v-4h2v4zM18 22h-2v-4h2v4z" fill="currentcolor"/>
</symbol><symbol id="icon-cross" viewBox="0 0 32 32">
<path d="M31.708 25.708c-0-0-0-0-0-0l-9.708-9.708 9.708-9.708c0-0 0-0 0-0 0.105-0.105 0.18-0.227 0.229-0.357 0.133-0.356 0.057-0.771-0.229-1.057l-4.586-4.586c-0.286-0.286-0.702-0.361-1.057-0.229-0.13 0.048-0.252 0.124-0.357 0.228 0 0-0 0-0 0l-9.708 9.708-9.708-9.708c-0-0-0-0-0-0-0.105-0.104-0.227-0.18-0.357-0.228-0.356-0.133-0.771-0.057-1.057 0.229l-4.586 4.586c-0.286 0.286-0.361 0.702-0.229 1.057 0.049 0.13 0.124 0.252 0.229 0.357 0 0 0 0 0 0l9.708 9.708-9.708 9.708c-0 0-0 0-0 0-0.104 0.105-0.18 0.227-0.229 0.357-0.133 0.355-0.057 0.771 0.229 1.057l4.586 4.586c0.286 0.286 0.702 0.361 1.057 0.229 0.13-0.049 0.252-0.124 0.357-0.229 0-0 0-0 0-0l9.708-9.708 9.708 9.708c0 0 0 0 0 0 0.105 0.105 0.227 0.18 0.357 0.229 0.356 0.133 0.771 0.057 1.057-0.229l4.586-4.586c0.286-0.286 0.362-0.702 0.229-1.057-0.049-0.13-0.124-0.252-0.229-0.357z" fill="currentcolor"/>
</symbol><symbol id="icon-envelop" viewBox="0 0 32 32">
<path d="M29 4h-26c-1.65 0-3 1.35-3 3v20c0 1.65 1.35 3 3 3h26c1.65 0 3-1.35 3-3v-20c0-1.65-1.35-3-3-3zM12.461 17.199l-8.461 6.59v-15.676l8.461 9.086zM5.512 8h20.976l-10.488 7.875-10.488-7.875zM12.79 17.553l3.21 3.447 3.21-3.447 6.58 8.447h-19.579l6.58-8.447zM19.539 17.199l8.461-9.086v15.676l-8.461-6.59z" fill="currentcolor"/>
</symbol><symbol id="icon-facebook2" viewBox="0 0 32 32">
<path d="M26.667 0h-21.334c-2.945 0-5.333 2.388-5.333 5.334v21.332c0 2.946 2.387 5.334 5.333 5.334h10.667v-14h-4v-4h4v-3c0-2.761 2.239-5 5-5h5v4h-5c-0.552 0-1 0.448-1 1v3h5.5l-1 4h-4.5v14h6.667c2.945 0 5.333-2.388 5.333-5.334v-21.332c0-2.946-2.387-5.334-5.333-5.334z" fill="currentcolor"/>
</symbol><symbol id="icon-folder-download" viewBox="0 0 32 32">
<path d="M18 8l-4-4h-14v26h32v-22h-14zM16 27l-7-7h5v-8h4v8h5l-7 7z" fill="currentcolor"/>
</symbol><symbol id="icon-folder-minus" viewBox="0 0 32 32">
<path d="M18 8l-4-4h-14v26h32v-22h-14zM22 22h-12v-4h12v4z" fill="currentcolor"/>
</symbol><symbol id="icon-folder-open" viewBox="0 0 32 32">
<path d="M26 30l6-16h-26l-6 16zM4 12l-4 18v-26h9l4 4h13v4z" fill="currentcolor"/>
</symbol><symbol id="icon-folder-plus" viewBox="0 0 32 32">
<path d="M18 8l-4-4h-14v26h32v-22h-14zM22 22h-4v4h-4v-4h-4v-4h4v-4h4v4h4v4z" fill="currentcolor"/>
</symbol><symbol id="icon-folder-upload" viewBox="0 0 32 32">
<path d="M18 8l-4-4h-14v26h32v-22h-14zM16 15l7 7h-5v8h-4v-8h-5l7-7z" fill="currentcolor"/>
</symbol><symbol id="icon-folder" viewBox="0 0 32 32"><path d="M0 10h32l-2 20H2L0 10zm29-4l1 2H2l2-4h11l1 2h13z"/></symbol><symbol id="icon-GD-logo2" viewBox="0 0 310 380"><path fill="currentcolor" d="M135.587 160.335v63.7c0 1.244-1.018 2.238-2.262 2.208-49.38-1.2-89.042-41.607-89.042-91.276 0-49.707 39.72-90.136 89.153-91.28 1.182-.026 2.15-1.018 2.15-2.2V6.19c0-1.24-1.014-2.228-2.254-2.207C62.024 5.188 4.586 63.37 4.586 134.967c0 72.042 58.153 130.5 130.077 130.998.508.004 1.217-.29 1.576-.65l19.195-19.195 19.203-19.2c.355-.356.646-1.058.646-1.56V120.442c0-2.928-1.694-3.63-3.765-1.56l-32.03 32.03c-2.146 2.146-3.903 6.386-3.903 9.422z"/><path fill="currentcolor" d="M171.994 118.41L139.448 151c-2.123 2.127-3.86 6.326-3.86 9.33v.055c1.387-3.582 3.787-5.522 8.834-5.565l3.68-.005h27.182c3.538 0 7.03.2 10.462.593 45.5 5.19 80.842 43.823 80.842 90.71 0 47.713-36.597 86.877-83.25 90.954-1.914.167-3.845.275-5.79.323-1.24.03-2.264-.967-2.264-2.208v-75.804c0-1.965-2.376-2.95-3.765-1.56l-34.642 34.642c-.71.71-1.292 2.114-1.292 3.12v77.125c0 2.426 1.985 4.41 4.41 4.41h35.287c2.803 0 5.585-.087 8.344-.26 68.462-4.303 122.657-61.193 122.657-130.74 0-70.727-56.05-128.363-126.153-130.913-3.037-.11-5.986 1.052-8.136 3.202z"/></symbol><symbol id="icon-github" viewBox="0 0 32 32">
<g id="icomoon-ignore">
	<line stroke-width="1" x1="" y1="" x2="" y2="" stroke="#449FDB" opacity=""/>
</g>
	<path d="M0 17.388c0 1.45 0.136 2.762 0.407 3.935s0.647 2.193 1.127 3.059c0.48 0.866 1.090 1.627 1.831 2.285s1.544 1.195 2.41 1.612c0.866 0.417 1.854 0.756 2.965 1.017s2.245 0.443 3.403 0.548c1.158 0.104 2.431 0.156 3.818 0.156 1.398 0 2.676-0.052 3.834-0.156s2.295-0.287 3.411-0.548c1.116-0.261 2.11-0.6 2.981-1.017s1.68-0.954 2.425-1.612c0.746-0.657 1.361-1.419 1.846-2.285s0.863-1.886 1.134-3.059c0.271-1.174 0.407-2.486 0.407-3.935 0-2.587-0.866-4.825-2.597-6.713 0.094-0.25 0.18-0.535 0.258-0.853s0.151-0.772 0.219-1.361c0.068-0.589 0.042-1.27-0.078-2.042s-0.342-1.56-0.665-2.363l-0.235-0.047c-0.167-0.031-0.441-0.023-0.822 0.024s-0.824 0.141-1.33 0.282c-0.506 0.141-1.158 0.412-1.956 0.814s-1.64 0.905-2.527 1.51c-1.523-0.417-3.615-0.626-6.275-0.626-2.65 0-4.736 0.209-6.259 0.626-0.887-0.605-1.734-1.108-2.543-1.51s-1.453-0.673-1.933-0.814c-0.48-0.141-0.928-0.232-1.346-0.274s-0.681-0.055-0.79-0.039c-0.11 0.016-0.196 0.034-0.258 0.055-0.323 0.803-0.545 1.591-0.665 2.363s-0.146 1.453-0.078 2.042c0.068 0.589 0.141 1.043 0.219 1.361s0.164 0.602 0.258 0.853c-1.732 1.888-2.598 4.126-2.598 6.713zM3.928 21.315c0-1.502 0.683-2.879 2.050-4.131 0.407-0.376 0.881-0.66 1.424-0.853s1.155-0.302 1.839-0.329c0.683-0.026 1.338-0.021 1.964 0.016s1.398 0.086 2.316 0.149c0.918 0.063 1.711 0.094 2.379 0.094s1.46-0.031 2.378-0.094c0.918-0.063 1.69-0.112 2.316-0.149s1.28-0.042 1.964-0.016c0.683 0.026 1.296 0.136 1.839 0.329s1.017 0.477 1.424 0.853c1.367 1.231 2.050 2.608 2.050 4.131 0 0.897-0.112 1.693-0.337 2.386s-0.511 1.275-0.861 1.745c-0.349 0.469-0.834 0.868-1.455 1.197s-1.226 0.582-1.815 0.759c-0.589 0.177-1.346 0.316-2.269 0.415s-1.747 0.159-2.472 0.18c-0.725 0.021-1.646 0.031-2.762 0.031s-2.037-0.010-2.762-0.031c-0.725-0.021-1.549-0.081-2.472-0.18s-1.68-0.237-2.269-0.415c-0.589-0.177-1.194-0.43-1.815-0.759s-1.106-0.728-1.455-1.197c-0.349-0.469-0.636-1.051-0.861-1.745s-0.336-1.489-0.336-2.386zM20 21c0-1.657 0.895-3 2-3s2 1.343 2 3c0 1.657-0.895 3-2 3s-2-1.343-2-3zM8 21c0-1.657 0.895-3 2-3s2 1.343 2 3c0 1.657-0.895 3-2 3s-2-1.343-2-3z" fill="currentcolor"/>
</symbol><symbol id="icon-github2" viewBox="0 0 32 32">
<g id="icomoon-ignore">
	<line stroke-width="1" x1="" y1="" x2="" y2="" stroke="#449FDB" opacity=""/>
</g>
	<path d="M8.233 23.73c0 0.845 0.715 1.268 2.146 1.268 1.252 0 1.878-0.439 1.878-1.317 0-0.829-0.683-1.244-2.048-1.244-1.317-0-1.975 0.43-1.975 1.292zM26.667 0h-21.333c-2.934 0-5.334 2.4-5.334 5.334v21.332c0 2.936 2.4 5.334 5.334 5.334h21.333c2.933 0 5.333-2.398 5.333-5.334v-21.332c0-2.934-2.399-5.334-5.333-5.334zM14.867 12.781c-0.228 0.081-0.553 0.171-0.975 0.268 0.13 0.374 0.195 0.723 0.195 1.049 0 1.040-0.313 1.947-0.939 2.719s-1.435 1.231-2.426 1.378c-0.65 0.098-0.975 0.447-0.975 1.049 0 0.211 0.106 0.423 0.317 0.634 0.276 0.309 0.683 0.504 1.219 0.585 2.325 0.358 3.487 1.325 3.487 2.902 0 2.52-1.504 3.78-4.511 3.78-1.236 0-2.252-0.22-3.048-0.658-1.008-0.553-1.512-1.422-1.512-2.609 0-1.366 0.756-2.3 2.268-2.804v-0.049c-0.553-0.341-0.829-0.862-0.829-1.561 0-0.91 0.26-1.48 0.78-1.707v-0.049c-0.52-0.179-0.984-0.585-1.39-1.22-0.455-0.683-0.683-1.414-0.683-2.195 0-1.171 0.415-2.146 1.244-2.926 0.797-0.732 1.748-1.097 2.853-1.097 0.797 0 1.536 0.195 2.219 0.585 0.78 0 1.683-0.195 2.707-0.585l-0 2.512zM18.818 21.219h-2.756c0.033-0.325 0.049-0.878 0.049-1.658v-7.584c0-0.764-0.016-1.293-0.049-1.585h2.756c-0.033 0.309-0.049 0.821-0.049 1.536v7.486c0 0.829 0.016 1.431 0.049 1.805zM18.635 7.953c-0.333 0.358-0.728 0.536-1.183 0.536-0.471 0-0.874-0.179-1.207-0.536s-0.5-0.78-0.5-1.268c0-0.504 0.167-0.935 0.5-1.293s0.736-0.537 1.207-0.537c0.455 0 0.849 0.179 1.183 0.537s0.5 0.788 0.5 1.293c0 0.488-0.167 0.91-0.5 1.268zM26.303 20.901c-0.602 0.325-1.325 0.488-2.171 0.488-1.187 0-2.008-0.422-2.463-1.268-0.342-0.634-0.512-1.634-0.512-2.999v-4.365h0.024v-0.049l-0.366-0.024c-0.211 0-0.488 0.024-0.829 0.073v-2.365h1.195v-0.951c0-0.455-0.024-0.821-0.073-1.098h2.829c-0.048 0.309-0.073 0.658-0.073 1.049v1h2.121v2.365c-0.081 0-0.232-0.008-0.451-0.024s-0.427-0.025-0.622-0.025h-1.049v4.536c0 1.090 0.358 1.634 1.073 1.634 0.504 0 0.959-0.138 1.366-0.415v2.439zM10.038 12.513c-1.024 0-1.536 0.602-1.536 1.805 0 1.122 0.512 1.683 1.536 1.683 0.992 0 1.488-0.569 1.488-1.707 0-0.472-0.114-0.878-0.341-1.219-0.276-0.374-0.659-0.561-1.146-0.561z" fill="currentcolor"/>
</symbol><symbol id="icon-google-plus2" viewBox="0 0 32 32">
<path d="M0.025 27.177c-0.008-0.079-0.014-0.158-0.018-0.238 0.004 0.080 0.011 0.159 0.018 0.238zM7.372 17.661c2.875 0.086 4.804-2.897 4.308-6.662s-3.231-6.787-6.106-6.873c-2.876-0.085-4.804 2.796-4.308 6.562 0.496 3.765 3.23 6.887 6.106 6.973zM32 8v-2.666c0-2.934-2.399-5.334-5.333-5.334h-21.333c-2.884 0-5.25 2.32-5.33 5.185 1.824-1.606 4.354-2.947 6.965-2.947 2.791 0 11.164 0 11.164 0l-2.498 2.113h-3.54c2.348 0.9 3.599 3.629 3.599 6.429 0 2.351-1.307 4.374-3.153 5.812-1.801 1.403-2.143 1.991-2.143 3.184 0 1.018 1.93 2.75 2.938 3.462 2.949 2.079 3.904 4.010 3.904 7.233 0 0.513-0.064 1.026-0.19 1.53h9.617c2.934 0 5.333-2.398 5.333-5.334v-16.666h-6v6h-2v-6h-6v-2h6v-6h2v6h6zM5.809 23.936c0.675 0 1.294-0.018 1.936-0.018-0.848-0.823-1.52-1.831-1.52-3.074 0-0.738 0.236-1.448 0.567-2.079-0.337 0.024-0.681 0.031-1.035 0.031-2.324 0-4.297-0.752-5.756-1.995v2.101l0 6.304c1.67-0.793 3.653-1.269 5.809-1.269zM0.107 27.727c-0.035-0.171-0.061-0.344-0.079-0.52 0.018 0.176 0.045 0.349 0.079 0.52zM14.233 29.776c-0.471-1.838-2.139-2.749-4.465-4.361-0.846-0.273-1.778-0.434-2.778-0.444-2.801-0.030-5.41 1.092-6.882 2.762 0.498 2.428 2.657 4.267 5.226 4.267h8.951c0.057-0.348 0.084-0.707 0.084-1.076 0-0.392-0.048-0.775-0.137-1.148z" fill="currentcolor"/>
</symbol><symbol id="icon-hexagon" viewBox="0 0 162.4 184.4">
<polygon points="
	10,51.1 81.2,10 152.4,51.1 152.4,133.3 81.2,174.4 10,133.3 "/>
</symbol><symbol id="icon-home" viewBox="0 0 32 32">
<path d="M32 18.451l-16-12.42-16 12.42v-5.064l16-12.42 16 12.42zM28 18v12h-8v-8h-8v8h-8v-12l12-9z" fill="currentcolor"/>
</symbol><symbol id="icon-html5" viewBox="0 0 32 32">
<path d="M1.892 0l2.567 28.801 11.524 3.199 11.554-3.204 2.572-28.796h-28.216zM24.52 9.42h-13.517l0.322 3.617h12.874l-0.97 10.844-7.245 2.008-7.237-2.008-0.495-5.547h3.547l0.252 2.82 3.933 1.060 0.009-0.002 3.935-1.062 0.408-4.58h-12.242l-0.953-10.681h17.694l-0.316 3.532z" fill="currentcolor"/>
</symbol><symbol id="icon-image" viewBox="0 0 32 32">
<path d="M29.996 4c0.001 0.001 0.003 0.002 0.004 0.004v23.993c-0.001 0.001-0.002 0.003-0.004 0.004h-27.993c-0.001-0.001-0.003-0.002-0.004-0.004v-23.993c0.001-0.001 0.002-0.003 0.004-0.004h27.993zM30 2h-28c-1.1 0-2 0.9-2 2v24c0 1.1 0.9 2 2 2h28c1.1 0 2-0.9 2-2v-24c0-1.1-0.9-2-2-2v0z" fill="currentcolor"/>
<path d="M26 9c0 1.657-1.343 3-3 3s-3-1.343-3-3 1.343-3 3-3 3 1.343 3 3z" fill="currentcolor"/>
<path d="M28 26h-24v-4l7-12 8 10h2l7-6z" fill="currentcolor"/>
</symbol><symbol id="icon-images" viewBox="0 0 36 32">
<path d="M34 4h-2v-2c0-1.1-0.9-2-2-2h-28c-1.1 0-2 0.9-2 2v24c0 1.1 0.9 2 2 2h2v2c0 1.1 0.9 2 2 2h28c1.1 0 2-0.9 2-2v-24c0-1.1-0.9-2-2-2zM4 6v20h-1.996c-0.001-0.001-0.003-0.002-0.004-0.004v-23.993c0.001-0.001 0.002-0.003 0.004-0.004h27.993c0.001 0.001 0.003 0.002 0.004 0.004v1.996h-24c-1.1 0-2 0.9-2 2v0zM34 29.996c-0.001 0.001-0.002 0.003-0.004 0.004h-27.993c-0.001-0.001-0.003-0.002-0.004-0.004v-23.993c0.001-0.001 0.002-0.003 0.004-0.004h27.993c0.001 0.001 0.003 0.002 0.004 0.004v23.993z" fill="currentcolor"/>
<path d="M30 11c0 1.657-1.343 3-3 3s-3-1.343-3-3 1.343-3 3-3 3 1.343 3 3z" fill="currentcolor"/>
<path d="M32 28h-24v-4l7-12 8 10h2l7-6z" fill="currentcolor"/>
</symbol><symbol id="icon-info" viewBox="0 0 32 32">
<path d="M14 9.5c0-0.825 0.675-1.5 1.5-1.5h1c0.825 0 1.5 0.675 1.5 1.5v1c0 0.825-0.675 1.5-1.5 1.5h-1c-0.825 0-1.5-0.675-1.5-1.5v-1z" fill="currentcolor"/>
<path d="M20 24h-8v-2h2v-6h-2v-2h6v8h2z" fill="currentcolor"/>
<path d="M16 0c-8.837 0-16 7.163-16 16s7.163 16 16 16 16-7.163 16-16-7.163-16-16-16zM16 29c-7.18 0-13-5.82-13-13s5.82-13 13-13 13 5.82 13 13-5.82 13-13 13z" fill="currentcolor"/>
</symbol><symbol id="icon-linkedin" viewBox="0 0 32 32">
<g id="icomoon-ignore">
	<line stroke-width="1" x1="" y1="" x2="" y2="" stroke="#449FDB" opacity=""/>
</g>
	<path d="M26.625 0h-21.25c-2.956 0-5.375 2.419-5.375 5.375v21.25c0 2.956 2.419 5.375 5.375 5.375h21.25c2.956 0 5.375-2.419 5.375-5.375v-21.25c0-2.956-2.419-5.375-5.375-5.375zM12 26h-4v-14h4v14zM10 10c-1.105 0-2-0.895-2-2s0.895-2 2-2 2 0.895 2 2-0.895 2-2 2zM26 26h-4v-8c0-1.105-0.895-2-2-2s-2 0.895-2 2v8h-4v-14h4v2.483c0.825-1.133 2.086-2.483 3.5-2.483 2.485 0 4.5 2.239 4.5 5v9z" fill="currentcolor"/>
</symbol><symbol id="icon-location2" viewBox="0 0 32 32">
<path d="M16 0c-5.523 0-10 4.477-10 10 0 10 10 22 10 22s10-12 10-22c0-5.523-4.477-10-10-10zM16 16.125c-3.383 0-6.125-2.742-6.125-6.125s2.742-6.125 6.125-6.125 6.125 2.742 6.125 6.125-2.742 6.125-6.125 6.125zM12.125 10c0-2.14 1.735-3.875 3.875-3.875s3.875 1.735 3.875 3.875c0 2.14-1.735 3.875-3.875 3.875s-3.875-1.735-3.875-3.875z" fill="currentcolor"/>
</symbol><symbol id="icon-mail" viewBox="0 0 32 32">
<path d="M26.666 0h-21.332c-2.934 0-5.334 2.4-5.334 5.333v21.333c0 2.934 2.4 5.334 5.334 5.334h21.332c2.936 0 5.334-2.4 5.334-5.334v-21.333c0-2.934-2.398-5.333-5.334-5.333zM8 8h16c0.286 0 0.563 0.061 0.817 0.177l-8.817 10.286-8.817-10.287c0.254-0.116 0.531-0.177 0.817-0.177zM6 22v-12c0-0.042 0.002-0.084 0.004-0.125l5.864 6.842-5.8 5.8c-0.045-0.167-0.069-0.34-0.069-0.517zM24 24h-16c-0.177 0-0.35-0.024-0.517-0.069l5.691-5.691 2.826 3.297 2.826-3.297 5.691 5.691c-0.167 0.045-0.34 0.069-0.517 0.069zM26 22c0 0.177-0.024 0.35-0.069 0.517l-5.8-5.8 5.864-6.842c0.003 0.041 0.004 0.083 0.004 0.125v12z" fill="currentcolor"/>
</symbol><symbol id="icon-menu" viewBox="0 0 32 32">

	<path d="M2 6h28v6h-28zM2 14h28v6h-28zM2 22h28v6h-28z" fill="currentcolor"/>
</symbol><symbol id="icon-minus" viewBox="0 0 32 32">
<path d="M0 13v6c0 0.552 0.448 1 1 1h30c0.552 0 1-0.448 1-1v-6c0-0.552-0.448-1-1-1h-30c-0.552 0-1 0.448-1 1z" fill="currentcolor"/>
</symbol><symbol id="icon-notification" viewBox="0 0 32 32">
<path d="M16 3c-3.472 0-6.737 1.352-9.192 3.808s-3.808 5.72-3.808 9.192c0 3.472 1.352 6.737 3.808 9.192s5.72 3.808 9.192 3.808c3.472 0 6.737-1.352 9.192-3.808s3.808-5.72 3.808-9.192c0-3.472-1.352-6.737-3.808-9.192s-5.72-3.808-9.192-3.808zM16 0v0c8.837 0 16 7.163 16 16s-7.163 16-16 16c-8.837 0-16-7.163-16-16s7.163-16 16-16zM14 22h4v4h-4zM14 6h4v12h-4z" fill="currentcolor"/>
</symbol><symbol id="icon-paypal" viewBox="0 0 32 32">
<path d="M27.52 4.087c0.803 0.393 1.503 0.953 2.016 1.64 1.079 1.447 1.382 3.418 0.901 5.858-0.486 2.47-1.575 4.554-3.161 6.064-0.29 0.303-0.601 0.586-0.931 0.846-1.699 1.338-3.844 2.045-6.203 2.045h-7.502l-2.018 9.46h-4.138l0.315-1.447h1.442l2.018-9.46h5.883c5.633 0 10.342-3.471 11.602-9.373 1.429-6.682-3.362-9.72-7.482-9.72h-14.040l-6.221 28.553h4.751l-0.751 3.447h8.239l2.018-9.46h5.883c5.633 0 10.342-3.471 11.602-9.373 1.054-4.928-1.275-7.873-4.222-9.080zM13.198 5.815h4.035c2.018 0 3.363 1.736 2.775 3.905-0.504 2.17-2.606 3.905-4.707 3.905h-3.867l1.765-7.81z" fill="currentcolor"/>
</symbol><symbol id="icon-phone" viewBox="0 0 32 32">
<path d="M22 20c-2 2-2 4-4 4s-4-2-6-4-4-4-4-6 2-2 4-4-4-8-6-8-6 6-6 6c0 4 4.109 12.109 8 16s12 8 16 8c0 0 6-4 6-6s-6-8-8-6z" fill="currentcolor"/>
</symbol><symbol id="icon-plus" viewBox="0 0 32 32">
<path d="M31 12h-11v-11c0-0.552-0.448-1-1-1h-6c-0.552 0-1 0.448-1 1v11h-11c-0.552 0-1 0.448-1 1v6c0 0.552 0.448 1 1 1h11v11c0 0.552 0.448 1 1 1h6c0.552 0 1-0.448 1-1v-11h11c0.552 0 1-0.448 1-1v-6c0-0.552-0.448-1-1-1z" fill="currentcolor"/>
</symbol><symbol id="icon-spinner" viewBox="0 0 32 32">
<g id="icomoon-ignore">
	<line stroke-width="1" x1="" y1="" x2="" y2="" stroke="#449FDB" opacity=""/>
</g>
	<path d="M16 0c-8.711 0-15.796 6.961-15.995 15.624 0.185-7.558 5.932-13.624 12.995-13.624 7.18 0 13 6.268 13 14 0 1.657 1.343 3 3 3s3-1.343 3-3c0-8.837-7.163-16-16-16zM16 32c8.711 0 15.796-6.961 15.995-15.624-0.185 7.558-5.932 13.624-12.995 13.624-7.18 0-13-6.268-13-14 0-1.657-1.343-3-3-3s-3 1.343-3 3c0 8.837 7.163 16 16 16z" fill="currentcolor"/>
</symbol><symbol id="icon-spinner2" viewBox="0 0 32 32">
<path d="M32 16c-0.040-2.089-0.493-4.172-1.331-6.077-0.834-1.906-2.046-3.633-3.533-5.060-1.486-1.428-3.248-2.557-5.156-3.302-1.906-0.748-3.956-1.105-5.981-1.061-2.025 0.040-4.042 0.48-5.885 1.292-1.845 0.809-3.517 1.983-4.898 3.424s-2.474 3.147-3.193 4.994c-0.722 1.846-1.067 3.829-1.023 5.79 0.040 1.961 0.468 3.911 1.254 5.694 0.784 1.784 1.921 3.401 3.316 4.736 1.394 1.336 3.046 2.391 4.832 3.085 1.785 0.697 3.701 1.028 5.598 0.985 1.897-0.040 3.78-0.455 5.502-1.216 1.723-0.759 3.285-1.859 4.574-3.208 1.29-1.348 2.308-2.945 2.977-4.67 0.407-1.046 0.684-2.137 0.829-3.244 0.039 0.002 0.078 0.004 0.118 0.004 1.105 0 2-0.895 2-2 0-0.056-0.003-0.112-0.007-0.167h0.007zM28.822 21.311c-0.733 1.663-1.796 3.169-3.099 4.412s-2.844 2.225-4.508 2.868c-1.663 0.646-3.447 0.952-5.215 0.909-1.769-0.041-3.519-0.429-5.119-1.14-1.602-0.708-3.053-1.734-4.25-2.991s-2.141-2.743-2.76-4.346c-0.621-1.603-0.913-3.319-0.871-5.024 0.041-1.705 0.417-3.388 1.102-4.928 0.683-1.541 1.672-2.937 2.883-4.088s2.642-2.058 4.184-2.652c1.542-0.596 3.192-0.875 4.832-0.833 1.641 0.041 3.257 0.404 4.736 1.064 1.48 0.658 2.82 1.609 3.926 2.774s1.975 2.54 2.543 4.021c0.57 1.481 0.837 3.064 0.794 4.641h0.007c-0.005 0.055-0.007 0.11-0.007 0.167 0 1.032 0.781 1.88 1.784 1.988-0.195 1.088-0.517 2.151-0.962 3.156z" fill="currentcolor"/>
</symbol><symbol id="icon-twitter" viewBox="0 0 32 32">
<g id="icomoon-ignore">
	<line stroke-width="1" x1="" y1="" x2="" y2="" stroke="#449FDB" opacity=""/>
</g>
	<path d="M26.667 0h-21.333c-2.934 0-5.334 2.4-5.334 5.334v21.332c0 2.936 2.4 5.334 5.334 5.334h21.333c2.934 0 5.333-2.398 5.333-5.334v-21.332c0-2.934-2.399-5.334-5.333-5.334zM26.189 10.682c0.010 0.229 0.015 0.46 0.015 0.692 0 7.069-5.288 15.221-14.958 15.221-2.969 0-5.732-0.886-8.059-2.404 0.411 0.050 0.83 0.075 1.254 0.075 2.463 0 4.73-0.855 6.529-2.29-2.3-0.043-4.242-1.59-4.911-3.715 0.321 0.063 0.65 0.096 0.989 0.096 0.479 0 0.944-0.066 1.385-0.188-2.405-0.492-4.217-2.654-4.217-5.245 0-0.023 0-0.045 0-0.067 0.709 0.401 1.519 0.641 2.381 0.669-1.411-0.959-2.339-2.597-2.339-4.453 0-0.98 0.259-1.899 0.712-2.689 2.593 3.237 6.467 5.366 10.836 5.589-0.090-0.392-0.136-0.8-0.136-1.219 0-2.954 2.354-5.349 5.257-5.349 1.512 0 2.879 0.65 3.838 1.689 1.198-0.24 2.323-0.685 3.338-1.298-0.393 1.249-1.226 2.298-2.311 2.96 1.063-0.129 2.077-0.417 3.019-0.842-0.705 1.073-1.596 2.015-2.623 2.769z" fill="currentcolor"/>
</symbol><symbol id="icon-warning" viewBox="0 0 32 32">
<path d="M16 2.899l13.409 26.726h-26.819l13.409-26.726zM16 0c-0.69 0-1.379 0.465-1.903 1.395l-13.659 27.222c-1.046 1.86-0.156 3.383 1.978 3.383h27.166c2.134 0 3.025-1.522 1.978-3.383h0l-13.659-27.222c-0.523-0.93-1.213-1.395-1.903-1.395v0z" fill="currentcolor"/>
<path d="M18 26c0 1.105-0.895 2-2 2s-2-0.895-2-2c0-1.105 0.895-2 2-2s2 0.895 2 2z" fill="currentcolor"/>
<path d="M16 22c-1.105 0-2-0.895-2-2v-6c0-1.105 0.895-2 2-2s2 0.895 2 2v6c0 1.105-0.895 2-2 2z" fill="currentcolor"/>
</symbol></svg>