<?xml version="1.0" encoding="UTF-8"?><!DOCTYPE svg PUBLIC "-//W3C//DTD SVG 1.1//EN" "http://www.w3.org/Graphics/SVG/1.1/DTD/svg11.dtd"><svg xmlns="http://www.w3.org/2000/svg"><symbol id="icon-address-book" viewBox="0 0 32 32">
    <path d="M6 0v32h24V0H6zm12 8.01c2.203 0 3.99 1.786 3.99 3.99s-1.786 3.99-3.99 3.99-3.99-1.786-3.99-3.99S15.796 8.01 18 8.01zM24 24H12v-2c0-2.21 1.79-4 4-4h4c2.21 0 4 1.79 4 4v2zM2 2h3v6H2V2zM2 10h3v6H2v-6zM2 18h3v6H2v-6zM2 26h3v6H2v-6z"/>
</symbol><symbol id="icon-bubble" viewBox="0 0 32 32">
    <path d="M16 2c8.837 0 16 5.82 16 13s-7.163 13-16 13c-.85 0-1.682-.054-2.495-.158C10.068 31.28 5.965 31.895 2 31.986v-.84c2.142-1.05 4-2.962 4-5.146 0-.305-.024-.604-.068-.897C2.312 22.72 0 19.08 0 15 0 7.82 7.163 2 16 2z"/>
</symbol><symbol id="icon-cancel-circle" viewBox="0 0 32 32">
    <path d="M16 0C7.163 0 0 7.163 0 16s7.163 16 16 16 16-7.163 16-16S24.837 0 16 0zm0 29C8.82 29 3 23.18 3 16S8.82 3 16 3s13 5.82 13 13-5.82 13-13 13z"/>
    <path d="M21 8l-5 5-5-5-3 3 5 5-5 5 3 3 5-5 5 5 3-3-5-5 5-5z"/>
</symbol><symbol id="icon-cart" viewBox="0 0 32 32">
    <path d="M12 29c0 1.657-1.343 3-3 3s-3-1.343-3-3 1.343-3 3-3 3 1.343 3 3zM32 29c0 1.657-1.343 3-3 3s-3-1.343-3-3 1.343-3 3-3 3 1.343 3 3zM32 16V4H8c0-1.105-.895-2-2-2H0v2h4l1.502 12.877C4.587 17.61 4 18.737 4 20c0 2.21 1.79 4 4 4h24v-2H8c-1.105 0-2-.895-2-2v-.02L32 16z"/>
</symbol><symbol id="icon-checkmark" viewBox="0 0 32 32">
    <path d="M27 4L12 19l-7-7-5 5 12 12L32 9z"/>
</symbol><symbol id="icon-cog" viewBox="0 0 32 32">
    <path stroke="#449FDB" d="M0 0"/>
    <path d="M32 19.003v-6.006l-4.587-.764c-.186-.567-.413-1.115-.678-1.64l2.702-3.783-4.247-4.247-3.776 2.697c-.528-.267-1.08-.497-1.65-.684L19.003 0h-6.006l-.763 4.576c-.57.188-1.12.417-1.65.684L6.81 2.563 2.56 6.81l2.703 3.782c-.265.526-.492 1.074-.678 1.64l-4.587.765v6.006l4.597.766c.186.56.413 1.104.676 1.625L2.56 25.19l4.247 4.247 3.802-2.715c.518.26 1.058.485 1.617.67L12.995 32H19l.77-4.61c.558-.184 1.098-.408 1.617-.67l3.802 2.716 4.246-4.247-2.71-3.796c.263-.52.49-1.064.675-1.626L32 19.002zM16 20c-2.21 0-4-1.79-4-4s1.79-4 4-4 4 1.79 4 4-1.79 4-4 4z"/>
</symbol><symbol id="icon-coin-dollar" viewBox="0 0 32 32">
    <path d="M15 2C6.716 2 0 8.716 0 17s6.716 15 15 15c8.284 0 15-6.716 15-15S23.284 2 15 2zm0 27C8.373 29 3 23.627 3 17S8.373 5 15 5s12 5.373 12 12-5.373 12-12 12zm1-13v-4h4v-2h-4V8h-2v2h-4v8h4v4h-4v2h4v2h2v-2h4v-8h-4zm-2 0h-2v-4h2v4zm4 6h-2v-4h2v4z"/>
</symbol><symbol id="icon-cross" viewBox="0 0 32 32">
    <path d="M31.708 25.708L22 16l9.708-9.708c.105-.105.18-.227.23-.357.132-.356.056-.77-.23-1.057L27.122.292c-.286-.286-.702-.36-1.057-.23-.13.05-.252.125-.357.23L16 9.998 6.292.29C6.187.188 6.065.11 5.935.064c-.356-.133-.77-.057-1.057.23L.292 4.877c-.286.286-.36.702-.23 1.057.05.13.125.252.23.357L10 16 .292 25.708c-.104.105-.18.227-.23.357-.132.355-.056.77.23 1.057l4.586 4.586c.286.286.702.36 1.057.23.13-.05.252-.125.357-.23L16 22l9.708 9.708c.105.105.227.18.357.23.356.132.77.056 1.057-.23l4.586-4.586c.286-.286.362-.702.23-1.057-.05-.13-.125-.252-.23-.357z"/>
</symbol><symbol id="icon-envelop" viewBox="0 0 32 32">
    <path d="M29 4H3C1.35 4 0 5.35 0 7v20c0 1.65 1.35 3 3 3h26c1.65 0 3-1.35 3-3V7c0-1.65-1.35-3-3-3zM12.46 17.2L4 23.79V8.112l8.46 9.086zM5.513 8h20.976L16 15.875 5.512 8zm7.278 9.553L16 21l3.21-3.447L25.79 26H6.21l6.58-8.447zm6.75-.354L28 8.112V23.79l-8.46-6.59z"/>
</symbol><symbol id="icon-facebook2" viewBox="0 0 32 32">
    <path d="M26.667 0H5.333C2.388 0 0 2.388 0 5.334v21.332C0 29.612 2.387 32 5.333 32H16V18h-4v-4h4v-3c0-2.76 2.24-5 5-5h5v4h-5c-.552 0-1 .448-1 1v3h5.5l-1 4H20v14h6.667C29.612 32 32 29.612 32 26.666V5.334C32 2.388 29.613 0 26.667 0z"/>
</symbol><symbol id="icon-folder-download" viewBox="0 0 32 32">
    <path d="M18 8l-4-4H0v26h32V8H18zm-2 19l-7-7h5v-8h4v8h5l-7 7z"/>
</symbol><symbol id="icon-folder-minus" viewBox="0 0 32 32">
    <path d="M18 8l-4-4H0v26h32V8H18zm4 14H10v-4h12v4z"/>
</symbol><symbol id="icon-folder-open" viewBox="0 0 32 32">
    <path d="M26 30l6-16H6L0 30zM4 12L0 30V4h9l4 4h13v4z"/>
</symbol><symbol id="icon-folder-plus" viewBox="0 0 32 32">
    <path d="M18 8l-4-4H0v26h32V8H18zm4 14h-4v4h-4v-4h-4v-4h4v-4h4v4h4v4z"/>
</symbol><symbol id="icon-folder-upload" viewBox="0 0 32 32">
    <path d="M18 8l-4-4H0v26h32V8H18zm-2 7l7 7h-5v8h-4v-8H9l7-7z"/>
</symbol><symbol id="icon-folder" viewBox="0 0 32 32">
    <path d="M0 10h32l-2 20H2L0 10zm29-4l1 2H2l2-4h11l1 2h13z"/>
</symbol><symbol id="icon-GD-logo2" viewBox="0 0 310 380">
    <path d="M135.587 160.335v63.7c0 1.244-1.018 2.238-2.262 2.208-49.38-1.2-89.042-41.607-89.042-91.276 0-49.707 39.72-90.136 89.153-91.28 1.182-.026 2.15-1.018 2.15-2.2V6.19c0-1.24-1.014-2.228-2.254-2.207C62.024 5.188 4.586 63.37 4.586 134.967c0 72.042 58.153 130.5 130.077 130.998.508.004 1.217-.29 1.576-.65l19.194-19.195 19.203-19.2c.355-.356.646-1.058.646-1.56V120.442c0-2.928-1.694-3.63-3.765-1.56l-32.03 32.03c-2.146 2.146-3.903 6.386-3.903 9.422z"/>
    <path d="M171.994 118.41L139.448 151c-2.123 2.127-3.86 6.326-3.86 9.33v.055c1.387-3.582 3.787-5.522 8.834-5.565l3.68-.005h27.182c3.538 0 7.03.2 10.462.593 45.5 5.19 80.842 43.823 80.842 90.71 0 47.713-36.597 86.877-83.25 90.954-1.914.167-3.845.275-5.79.323-1.24.03-2.264-.967-2.264-2.208v-75.804c0-1.965-2.376-2.95-3.765-1.56l-34.643 34.642c-.71.71-1.292 2.114-1.292 3.12v77.125c0 2.426 1.985 4.41 4.41 4.41h35.287c2.803 0 5.585-.087 8.344-.26 68.462-4.303 122.657-61.193 122.657-130.74 0-70.727-56.05-128.363-126.153-130.913-3.037-.11-5.986 1.052-8.136 3.202z"/>
</symbol><symbol id="icon-github" viewBox="0 0 32 32">
    <path stroke="#449FDB" d="M0 0"/>
    <path d="M0 17.388c0 1.45.136 2.762.407 3.935s.647 2.193 1.127 3.06c.48.865 1.09 1.626 1.83 2.284s1.545 1.195 2.41 1.612c.867.416 1.855.755 2.966 1.016s2.245.443 3.403.548c1.158.104 2.43.156 3.818.156 1.4 0 2.677-.052 3.835-.156s2.295-.287 3.41-.548c1.117-.26 2.11-.6 2.982-1.017s1.68-.955 2.425-1.613c.746-.657 1.36-1.42 1.846-2.285s.863-1.886 1.134-3.06c.27-1.173.407-2.485.407-3.934 0-2.587-.867-4.825-2.598-6.713.094-.25.18-.535.258-.853s.15-.772.22-1.36c.067-.59.04-1.27-.08-2.043s-.34-1.56-.664-2.364L28.9 4.01c-.166-.032-.44-.024-.82.023s-.825.14-1.33.282c-.507.14-1.16.412-1.957.814s-1.64.904-2.527 1.51c-1.523-.418-3.615-.627-6.275-.627-2.65 0-4.735.21-6.258.626-.887-.606-1.734-1.11-2.543-1.51s-1.454-.674-1.934-.815c-.48-.14-.928-.232-1.346-.274s-.68-.054-.79-.038c-.11.016-.196.034-.258.055-.323.803-.545 1.59-.665 2.363S2.05 7.873 2.12 8.462c.067.59.14 1.043.218 1.36s.164.603.258.854C.864 12.564-.002 14.802-.002 17.39zm3.928 3.927c0-1.502.683-2.88 2.05-4.13.407-.377.88-.66 1.424-.854s1.155-.3 1.84-.328c.682-.026 1.337-.02 1.963.016s1.398.086 2.316.15c.92.062 1.712.093 2.38.093s1.46-.03 2.378-.093c.918-.063 1.69-.112 2.316-.15s1.28-.04 1.964-.015c.683.026 1.296.136 1.84.33s1.016.476 1.423.852c1.368 1.23 2.05 2.608 2.05 4.13 0 .898-.11 1.694-.336 2.387s-.51 1.276-.86 1.746-.835.868-1.456 1.197-1.226.582-1.815.76c-.59.176-1.346.315-2.27.414s-1.746.16-2.47.18c-.726.02-1.647.03-2.763.03s-2.037-.01-2.762-.03c-.725-.02-1.55-.08-2.472-.18s-1.68-.237-2.27-.415c-.588-.177-1.193-.43-1.814-.76s-1.106-.727-1.455-1.196c-.35-.47-.636-1.05-.86-1.745s-.337-1.488-.337-2.385zM20 21c0-1.657.895-3 2-3s2 1.343 2 3-.895 3-2 3-2-1.343-2-3zM8 21c0-1.657.895-3 2-3s2 1.343 2 3-.895 3-2 3-2-1.343-2-3z"/>
</symbol><symbol id="icon-github2" viewBox="0 0 32 32">
    <path stroke="#449FDB" d="M0 0"/>
    <path d="M8.233 23.73c0 .845.715 1.268 2.146 1.268 1.25 0 1.877-.44 1.877-1.317 0-.828-.683-1.243-2.048-1.243-1.318 0-1.976.43-1.976 1.292zM26.667 0H5.334C2.4 0 0 2.4 0 5.334v21.332C0 29.602 2.4 32 5.334 32h21.333C29.6 32 32 29.602 32 26.666V5.334C32 2.4 29.6 0 26.667 0zm-11.8 12.78c-.228.082-.553.172-.975.27.13.373.195.722.195 1.048 0 1.04-.313 1.947-.94 2.72s-1.434 1.23-2.425 1.377c-.65.098-.975.447-.975 1.05 0 .21.106.422.317.633.276.31.683.504 1.22.585 2.324.358 3.486 1.325 3.486 2.902 0 2.52-1.504 3.78-4.51 3.78-1.237 0-2.253-.22-3.05-.658-1.007-.553-1.51-1.422-1.51-2.61 0-1.365.755-2.3 2.267-2.803v-.05c-.553-.34-.83-.86-.83-1.56 0-.91.26-1.48.78-1.707v-.05c-.52-.178-.983-.584-1.39-1.22-.454-.682-.682-1.413-.682-2.194 0-1.17.415-2.146 1.244-2.926.796-.732 1.747-1.097 2.852-1.097.797 0 1.536.195 2.22.585.78 0 1.682-.195 2.706-.585v2.512zm3.95 8.44h-2.755c.033-.326.05-.88.05-1.66v-7.583c0-.764-.017-1.293-.05-1.585h2.756c-.033.31-.05.82-.05 1.536v7.486c0 .83.017 1.43.05 1.805zm-.182-13.267c-.333.358-.728.536-1.183.536-.47 0-.874-.18-1.207-.537s-.5-.78-.5-1.268c0-.504.167-.935.5-1.293s.736-.537 1.207-.537c.455 0 .85.18 1.183.537s.5.788.5 1.293c0 .488-.167.91-.5 1.268zM26.303 20.9c-.602.326-1.325.49-2.17.49-1.188 0-2.01-.423-2.464-1.27-.343-.633-.513-1.633-.513-2.998v-4.365h.024v-.05l-.365-.023c-.21 0-.488.024-.83.073v-2.365h1.196v-.95c0-.456-.023-.822-.072-1.1h2.83c-.05.31-.074.66-.074 1.05v1h2.12v2.365c-.08 0-.23-.008-.45-.024s-.427-.025-.622-.025h-1.05v4.536c0 1.09.36 1.634 1.074 1.634.504 0 .96-.138 1.366-.415v2.44zm-16.265-8.387c-1.024 0-1.536.602-1.536 1.805 0 1.122.512 1.683 1.536 1.683.992 0 1.488-.568 1.488-1.706 0-.472-.114-.878-.34-1.22-.277-.373-.66-.56-1.147-.56z"/>
</symbol><symbol id="icon-google-plus2" viewBox="0 0 32 32">
    <path d="M.025 27.177c-.008-.08-.014-.158-.018-.238.004.08.01.158.018.237zm7.347-9.516c2.875.087 4.804-2.896 4.308-6.66S8.45 4.21 5.574 4.125C2.698 4.04.77 6.922 1.266 10.688c.496 3.765 3.23 6.887 6.106 6.973zM32 8V5.334C32 2.4 29.6 0 26.667 0H5.334C2.45 0 .084 2.32.004 5.185 1.828 3.58 4.358 2.238 6.97 2.238h11.163L15.635 4.35h-3.54c2.348.9 3.6 3.63 3.6 6.43 0 2.35-1.308 4.374-3.154 5.812-1.8 1.403-2.142 1.99-2.142 3.184 0 1.018 1.93 2.75 2.938 3.462 2.95 2.08 3.904 4.01 3.904 7.233 0 .514-.064 1.027-.19 1.53h9.617C29.6 32 32 29.604 32 26.668V10h-6v6h-2v-6h-6V8h6V2h2v6h6zM5.81 23.936c.674 0 1.293-.018 1.935-.018-.848-.823-1.52-1.83-1.52-3.074 0-.738.236-1.448.567-2.08-.337.025-.68.032-1.035.032-2.324 0-4.297-.752-5.756-1.995v8.406c1.67-.793 3.654-1.27 5.81-1.27zm-5.703 3.79c-.035-.17-.06-.343-.08-.52.02.177.046.35.08.52zm14.126 2.05c-.47-1.838-2.14-2.75-4.465-4.36-.846-.274-1.778-.435-2.778-.445-2.8-.03-5.41 1.093-6.882 2.763C.606 30.16 2.765 32 5.334 32h8.95c.058-.348.085-.707.085-1.076 0-.392-.05-.775-.138-1.148z"/>
</symbol><symbol id="icon-hexagon" viewBox="0 0 162.4 184.4">
    <path d="M10 51.1L81.2 10l71.2 41.1v82.2l-71.2 41.1L10 133.3"/>
</symbol><symbol id="icon-home" viewBox="0 0 32 32">
    <path d="M32 18.45L16 6.03 0 18.45v-5.063L16 .967l16 12.42zM28 18v12h-8v-8h-8v8H4V18l12-9z"/>
</symbol><symbol id="icon-html5" viewBox="0 0 32 32">
    <path d="M1.892 0L4.46 28.8 15.982 32l11.554-3.204L30.11 0H1.892zM24.52 9.42H11.003l.322 3.617H24.2l-.97 10.844-7.246 2.01-7.237-2.01-.495-5.546H11.8l.25 2.82 3.934 1.06.01-.002 3.934-1.062.408-4.58H8.094L7.14 5.89h17.695l-.316 3.53z"/>
</symbol><symbol id="icon-image" viewBox="0 0 32 32">
    <path d="M29.996 4l.004.004v23.993l-.004.004H2.003S2 28 2 27.998V4.004S2 4 2.002 4h27.993zM30 2H2C.9 2 0 2.9 0 4v24c0 1.1.9 2 2 2h28c1.1 0 2-.9 2-2V4c0-1.1-.9-2-2-2z"/>
    <path d="M26 9c0 1.657-1.343 3-3 3s-3-1.343-3-3 1.343-3 3-3 3 1.343 3 3zM28 26H4v-4l7-12 8 10h2l7-6z"/>
</symbol><symbol id="icon-images" viewBox="0 0 36 32">
    <path d="M34 4h-2V2c0-1.1-.9-2-2-2H2C.9 0 0 .9 0 2v24c0 1.1.9 2 2 2h2v2c0 1.1.9 2 2 2h28c1.1 0 2-.9 2-2V6c0-1.1-.9-2-2-2zM4 6v20H2.004L2 25.996V2.003L2.004 2h27.993S30 2 30 2.002V4H6c-1.1 0-2 .9-2 2zm30 23.996l-.004.004H6.003L6 29.996V6.003S6 6 6.002 6h27.993S34 6 34 6.002v23.993z"/>
    <path d="M30 11c0 1.657-1.343 3-3 3s-3-1.343-3-3 1.343-3 3-3 3 1.343 3 3zM32 28H8v-4l7-12 8 10h2l7-6z"/>
</symbol><symbol id="icon-info" viewBox="0 0 32 32">
    <path d="M14 9.5c0-.825.675-1.5 1.5-1.5h1c.825 0 1.5.675 1.5 1.5v1c0 .825-.675 1.5-1.5 1.5h-1c-.825 0-1.5-.675-1.5-1.5v-1zM20 24h-8v-2h2v-6h-2v-2h6v8h2z"/>
    <path d="M16 0C7.163 0 0 7.163 0 16s7.163 16 16 16 16-7.163 16-16S24.837 0 16 0zm0 29C8.82 29 3 23.18 3 16S8.82 3 16 3s13 5.82 13 13-5.82 13-13 13z"/>
</symbol><symbol id="icon-linkedin" viewBox="-289 381 32 32">
    <path d="M-262.4 381h-21.3c-3 0-5.4 2.4-5.4 5.4v21.3c0 3 2.4 5.4 5.4 5.4h21.3c3 0 5.4-2.4 5.4-5.4v-21.3c0-3-2.4-5.4-5.4-5.4zm-14.6 26h-4v-14h4v14zm-2-16c-1.1 0-2-.9-2-2s.9-2 2-2 2 .9 2 2-.9 2-2 2zm16 16h-4v-8c0-1.1-.9-2-2-2s-2 .9-2 2v8h-4v-14h4v2.5c.8-1.1 2.1-2.5 3.5-2.5 2.5 0 4.5 2.2 4.5 5v9z"/>
</symbol><symbol id="icon-location2" viewBox="0 0 32 32">
    <path d="M16 0C10.477 0 6 4.477 6 10c0 10 10 22 10 22s10-12 10-22c0-5.523-4.477-10-10-10zm0 16.125c-3.383 0-6.125-2.742-6.125-6.125S12.617 3.875 16 3.875 22.125 6.617 22.125 10 19.383 16.125 16 16.125zM12.125 10c0-2.14 1.735-3.875 3.875-3.875S19.875 7.86 19.875 10c0 2.14-1.735 3.875-3.875 3.875S12.125 12.14 12.125 10z"/>
</symbol><symbol id="icon-mail" viewBox="0 0 32 32">
    <path d="M26.666 0H5.334C2.4 0 0 2.4 0 5.333v21.333C0 29.6 2.4 32 5.334 32h21.332C29.602 32 32 29.6 32 26.666V5.333C32 2.4 29.602 0 26.666 0zM8 8h16c.286 0 .563.06.817.177L16 18.463 7.183 8.176C7.437 8.06 7.713 8 8 8zM6 22V10c0-.042.002-.084.004-.125l5.864 6.842-5.8 5.8c-.045-.167-.07-.34-.07-.517zm18 2H8c-.177 0-.35-.024-.517-.07l5.69-5.69L16 21.537l2.826-3.297 5.69 5.69c-.166.046-.34.07-.516.07zm2-2c0 .177-.024.35-.07.517l-5.8-5.8 5.865-6.842c.003.04.004.083.004.125v12z"/>
</symbol><symbol id="icon-menu" viewBox="0 0 32 32">
    <path d="M2 6h28v6H2zm0 8h28v6H2zm0 8h28v6H2z"/>
</symbol><symbol id="icon-minus" viewBox="0 0 32 32">
    <path d="M0 13v6c0 .552.448 1 1 1h30c.552 0 1-.448 1-1v-6c0-.552-.448-1-1-1H1c-.552 0-1 .448-1 1z"/>
</symbol><symbol id="icon-notification" viewBox="0 0 32 32">
    <path d="M16 3c-3.472 0-6.737 1.352-9.192 3.808S3 12.528 3 16c0 3.472 1.352 6.737 3.808 9.192S12.528 29 16 29c3.472 0 6.737-1.352 9.192-3.808S29 19.472 29 16c0-3.472-1.352-6.737-3.808-9.192S19.472 3 16 3zm0-3c8.837 0 16 7.163 16 16s-7.163 16-16 16S0 24.837 0 16 7.163 0 16 0zm-2 22h4v4h-4zm0-16h4v12h-4z"/>
</symbol><symbol id="icon-paypal" viewBox="0 0 32 32">
    <path d="M27.52 4.087c.803.393 1.503.953 2.016 1.64 1.08 1.447 1.382 3.418.9 5.858-.485 2.47-1.574 4.554-3.16 6.064-.29.302-.6.585-.93.845-1.7 1.338-3.845 2.045-6.204 2.045H12.64L10.622 30H6.484l.315-1.447h1.44l2.02-9.46h5.882c5.633 0 10.342-3.47 11.602-9.373C29.174 3.038 24.382 0 20.262 0H6.222L.002 28.553h4.75L4.002 32h8.238l2.018-9.46h5.883c5.634 0 10.343-3.47 11.603-9.373 1.054-4.928-1.275-7.873-4.222-9.08zM13.198 5.815h4.035c2.018 0 3.363 1.736 2.775 3.905-.504 2.17-2.606 3.905-4.707 3.905h-3.866l1.765-7.81z"/>
</symbol><symbol id="icon-phone" viewBox="0 0 32 32">
    <path d="M22 20c-2 2-2 4-4 4s-4-2-6-4-4-4-4-6 2-2 4-4-4-8-6-8-6 6-6 6c0 4 4.11 12.11 8 16s12 8 16 8c0 0 6-4 6-6s-6-8-8-6z"/>
</symbol><symbol id="icon-plus" viewBox="0 0 32 32">
    <path d="M31 12H20V1c0-.552-.448-1-1-1h-6c-.552 0-1 .448-1 1v11H1c-.552 0-1 .448-1 1v6c0 .552.448 1 1 1h11v11c0 .552.448 1 1 1h6c.552 0 1-.448 1-1V20h11c.552 0 1-.448 1-1v-6c0-.552-.448-1-1-1z"/>
</symbol><symbol id="icon-spinner" viewBox="0 0 32 32">
    <path stroke="#449FDB" d="M0 0"/>
    <path d="M16 0C7.29 0 .204 6.96.005 15.624.19 8.066 5.937 2 13 2c7.18 0 13 6.268 13 14 0 1.657 1.343 3 3 3s3-1.343 3-3c0-8.837-7.163-16-16-16zm0 32c8.71 0 15.796-6.96 15.995-15.624C31.81 23.934 26.063 30 19 30c-7.18 0-13-6.268-13-14 0-1.657-1.343-3-3-3s-3 1.343-3 3c0 8.837 7.163 16 16 16z"/>
</symbol><symbol id="icon-spinner2" viewBox="0 0 32 32">
    <path d="M32 16c-.04-2.09-.493-4.172-1.33-6.077-.835-1.906-2.047-3.633-3.534-5.06-1.486-1.428-3.248-2.557-5.156-3.302C20.074.814 18.024.457 16 .5c-2.026.04-4.043.48-5.886 1.292-1.845.81-3.517 1.983-4.898 3.424S2.742 8.363 2.023 10.21C1.3 12.056.956 14.04 1 16c.04 1.96.468 3.91 1.254 5.694.784 1.784 1.92 3.4 3.316 4.736 1.394 1.336 3.046 2.39 4.832 3.085 1.785.697 3.7 1.028 5.598.985 1.897-.04 3.78-.455 5.502-1.216 1.723-.76 3.285-1.86 4.574-3.208 1.29-1.348 2.308-2.945 2.977-4.67.407-1.046.684-2.137.83-3.244.038.002.077.004.117.004 1.105 0 2-.895 2-2 0-.056-.003-.112-.007-.167H32zm-3.178 5.31c-.733 1.664-1.796 3.17-3.1 4.413s-2.843 2.225-4.507 2.868c-1.663.647-3.447.953-5.215.91-1.77-.04-3.52-.43-5.12-1.14-1.6-.708-3.052-1.734-4.25-2.99s-2.14-2.744-2.76-4.347C3.25 19.42 2.96 17.703 3 16c.04-1.706.417-3.39 1.102-4.93.683-1.54 1.672-2.936 2.883-4.087S9.627 4.925 11.17 4.33c1.54-.595 3.19-.874 4.83-.832 1.642.04 3.258.404 4.737 1.064 1.48.658 2.82 1.61 3.926 2.774s1.975 2.54 2.543 4.02c.57 1.482.837 3.065.794 4.642h.007c-.005.055-.007.11-.007.167 0 1.032.78 1.88 1.784 1.988-.195 1.088-.517 2.15-.962 3.156z"/>
</symbol><symbol id="icon-twitter" viewBox="-289 381 32 32">
    <style>
        .st0{fill:#444444;}
    </style>
    <path class="st0" d="M-262.3 381h-21.3c-2.9 0-5.3 2.4-5.3 5.3v21.3c0 2.9 2.4 5.3 5.3 5.3h21.3c2.9 0 5.3-2.4 5.3-5.3v-21.3c0-2.9-2.4-5.3-5.3-5.3zm-.5 10.7v.7c0 7.1-5.3 15.2-15 15.2-3 0-5.7-.9-8.1-2.4.4 0 .8.1 1.3.1 2.5 0 4.7-.9 6.5-2.3-2.3 0-4.2-1.6-4.9-3.7.3.1.6.1 1 .1.5 0 .9-.1 1.4-.2-2.4-.5-4.2-2.7-4.2-5.2v-.1c.7.4 1.5.6 2.4.7-1.4-1-2.3-2.6-2.3-4.5 0-1 .3-1.9.7-2.7 2.6 3.2 6.5 5.4 10.8 5.6-.1-.4-.1-.8-.1-1.2 0-3 2.4-5.3 5.3-5.3 1.5 0 2.9.6 3.8 1.7 1.2-.2 2.3-.7 3.3-1.3-.4 1.2-1.2 2.3-2.3 3 1.1-.1 2.1-.4 3-.8-.7.9-1.6 1.8-2.6 2.6z"/>
</symbol><symbol id="icon-warning" viewBox="0 0 32 32">
    <path d="M16 2.9l13.41 26.725H2.59L16 2.9zM16 0c-.69 0-1.38.465-1.903 1.395L.437 28.617C-.607 30.477.283 32 2.418 32H29.58c2.134 0 3.025-1.522 1.978-3.383L17.9 1.395C17.38.465 16.69 0 16 0z"/>
    <path d="M18 26c0 1.105-.895 2-2 2s-2-.895-2-2 .895-2 2-2 2 .895 2 2zM16 22c-1.105 0-2-.895-2-2v-6c0-1.105.895-2 2-2s2 .895 2 2v6c0 1.105-.895 2-2 2z"/>
</symbol></svg>