<svg xmlns="http://www.w3.org/2000/svg" display="none"><symbol id="icon-cancel-circle" viewBox="0 0 32 32">
    <path d="M16 0C7.163 0 0 7.163 0 16s7.163 16 16 16 16-7.163 16-16S24.837 0 16 0zm0 29C8.82 29 3 23.18 3 16S8.82 3 16 3s13 5.82 13 13-5.82 13-13 13z"/>
    <path d="M21 8l-5 5-5-5-3 3 5 5-5 5 3 3 5-5 5 5 3-3-5-5 5-5z"/>
</symbol><symbol id="icon-checkmark" viewBox="0 0 32 32">
    <path d="M27 4L12 19l-7-7-5 5 12 12L32 9z"/>
</symbol><symbol id="icon-envelop" viewBox="0 0 32 32">
    <path d="M29 4H3C1.35 4 0 5.35 0 7v20c0 1.65 1.35 3 3 3h26c1.65 0 3-1.35 3-3V7c0-1.65-1.35-3-3-3zM12.46 17.2L4 23.79V8.112l8.46 9.086zM5.513 8h20.976L16 15.875 5.512 8zm7.278 9.553L16 21l3.21-3.447L25.79 26H6.21l6.58-8.447zm6.75-.354L28 8.112V23.79l-8.46-6.59z"/>
</symbol><symbol id="icon-facebook2" viewBox="0 0 32 32">
    <path d="M26.667 0H5.333C2.388 0 0 2.388 0 5.334v21.332C0 29.612 2.387 32 5.333 32H16V18h-4v-4h4v-3c0-2.76 2.24-5 5-5h5v4h-5c-.552 0-1 .448-1 1v3h5.5l-1 4H20v14h6.667C29.612 32 32 29.612 32 26.666V5.334C32 2.388 29.613 0 26.667 0z"/>
</symbol><symbol id="icon-GD-logo2" viewBox="0 0 310 380">
    <path d="M135.587 160.335v63.7c0 1.244-1.018 2.238-2.262 2.208-49.38-1.2-89.042-41.607-89.042-91.276 0-49.707 39.72-90.136 89.153-91.28 1.182-.026 2.15-1.018 2.15-2.2V6.19c0-1.24-1.014-2.228-2.254-2.207C62.024 5.188 4.586 63.37 4.586 134.967c0 72.042 58.153 130.5 130.077 130.998.508.004 1.217-.29 1.576-.65l19.194-19.195 19.203-19.2c.355-.356.646-1.058.646-1.56V120.442c0-2.928-1.694-3.63-3.765-1.56l-32.03 32.03c-2.146 2.146-3.903 6.386-3.903 9.422z"/>
    <path d="M171.994 118.41L139.448 151c-2.123 2.127-3.86 6.326-3.86 9.33v.055c1.387-3.582 3.787-5.522 8.834-5.565l3.68-.005h27.182c3.538 0 7.03.2 10.462.593 45.5 5.19 80.842 43.823 80.842 90.71 0 47.713-36.597 86.877-83.25 90.954-1.914.167-3.845.275-5.79.323-1.24.03-2.264-.967-2.264-2.208v-75.804c0-1.965-2.376-2.95-3.765-1.56l-34.643 34.642c-.71.71-1.292 2.114-1.292 3.12v77.125c0 2.426 1.985 4.41 4.41 4.41h35.287c2.803 0 5.585-.087 8.344-.26 68.462-4.303 122.657-61.193 122.657-130.74 0-70.727-56.05-128.363-126.153-130.913-3.037-.11-5.986 1.052-8.136 3.202z"/>
</symbol><symbol id="icon-github" viewBox="0 0 32 32">
    <path stroke="#449FDB" d="M0 0"/>
    <path d="M0 17.388c0 1.45.136 2.762.407 3.935s.647 2.193 1.127 3.06c.48.865 1.09 1.626 1.83 2.284s1.545 1.195 2.41 1.612c.867.416 1.855.755 2.966 1.016s2.245.443 3.403.548c1.158.104 2.43.156 3.818.156 1.4 0 2.677-.052 3.835-.156s2.295-.287 3.41-.548c1.117-.26 2.11-.6 2.982-1.017s1.68-.955 2.425-1.613c.746-.657 1.36-1.42 1.846-2.285s.863-1.886 1.134-3.06c.27-1.173.407-2.485.407-3.934 0-2.587-.867-4.825-2.598-6.713.094-.25.18-.535.258-.853s.15-.772.22-1.36c.067-.59.04-1.27-.08-2.043s-.34-1.56-.664-2.364L28.9 4.01c-.166-.032-.44-.024-.82.023s-.825.14-1.33.282c-.507.14-1.16.412-1.957.814s-1.64.904-2.527 1.51c-1.523-.418-3.615-.627-6.275-.627-2.65 0-4.735.21-6.258.626-.887-.606-1.734-1.11-2.543-1.51s-1.454-.674-1.934-.815c-.48-.14-.928-.232-1.346-.274s-.68-.054-.79-.038c-.11.016-.196.034-.258.055-.323.803-.545 1.59-.665 2.363S2.05 7.873 2.12 8.462c.067.59.14 1.043.218 1.36s.164.603.258.854C.864 12.564-.002 14.802-.002 17.39zm3.928 3.927c0-1.502.683-2.88 2.05-4.13.407-.377.88-.66 1.424-.854s1.155-.3 1.84-.328c.682-.026 1.337-.02 1.963.016s1.398.086 2.316.15c.92.062 1.712.093 2.38.093s1.46-.03 2.378-.093c.918-.063 1.69-.112 2.316-.15s1.28-.04 1.964-.015c.683.026 1.296.136 1.84.33s1.016.476 1.423.852c1.368 1.23 2.05 2.608 2.05 4.13 0 .898-.11 1.694-.336 2.387s-.51 1.276-.86 1.746-.835.868-1.456 1.197-1.226.582-1.815.76c-.59.176-1.346.315-2.27.414s-1.746.16-2.47.18c-.726.02-1.647.03-2.763.03s-2.037-.01-2.762-.03c-.725-.02-1.55-.08-2.472-.18s-1.68-.237-2.27-.415c-.588-.177-1.193-.43-1.814-.76s-1.106-.727-1.455-1.196c-.35-.47-.636-1.05-.86-1.745s-.337-1.488-.337-2.385zM20 21c0-1.657.895-3 2-3s2 1.343 2 3-.895 3-2 3-2-1.343-2-3zM8 21c0-1.657.895-3 2-3s2 1.343 2 3-.895 3-2 3-2-1.343-2-3z"/>
</symbol><symbol id="icon-home" viewBox="0 0 32 32">
    <path d="M32 18.45L16 6.03 0 18.45v-5.063L16 .967l16 12.42zM28 18v12h-8v-8h-8v8H4V18l12-9z"/>
</symbol><symbol id="icon-linkedin" viewBox="-289 381 32 32">
    <path d="M-262.4 381h-21.3c-3 0-5.4 2.4-5.4 5.4v21.3c0 3 2.4 5.4 5.4 5.4h21.3c3 0 5.4-2.4 5.4-5.4v-21.3c0-3-2.4-5.4-5.4-5.4zm-14.6 26h-4v-14h4v14zm-2-16c-1.1 0-2-.9-2-2s.9-2 2-2 2 .9 2 2-.9 2-2 2zm16 16h-4v-8c0-1.1-.9-2-2-2s-2 .9-2 2v8h-4v-14h4v2.5c.8-1.1 2.1-2.5 3.5-2.5 2.5 0 4.5 2.2 4.5 5v9z"/>
</symbol><symbol id="icon-mail" viewBox="0 0 32 32">
    <path d="M26.666 0H5.334C2.4 0 0 2.4 0 5.333v21.333C0 29.6 2.4 32 5.334 32h21.332C29.602 32 32 29.6 32 26.666V5.333C32 2.4 29.602 0 26.666 0zM8 8h16c.286 0 .563.06.817.177L16 18.463 7.183 8.176C7.437 8.06 7.713 8 8 8zM6 22V10c0-.042.002-.084.004-.125l5.864 6.842-5.8 5.8c-.045-.167-.07-.34-.07-.517zm18 2H8c-.177 0-.35-.024-.517-.07l5.69-5.69L16 21.537l2.826-3.297 5.69 5.69c-.166.046-.34.07-.516.07zm2-2c0 .177-.024.35-.07.517l-5.8-5.8 5.865-6.842c.003.04.004.083.004.125v12z"/>
</symbol><symbol id="icon-menu" viewBox="0 0 32 32">
    <path d="M2 6h28v6H2zm0 8h28v6H2zm0 8h28v6H2z"/>
</symbol><symbol id="icon-minus" viewBox="0 0 32 32">
    <path d="M0 13v6c0 .552.448 1 1 1h30c.552 0 1-.448 1-1v-6c0-.552-.448-1-1-1H1c-.552 0-1 .448-1 1z"/>
</symbol><symbol id="icon-paypal" viewBox="0 0 32 32">
    <path d="M27.52 4.087c.803.393 1.503.953 2.016 1.64 1.08 1.447 1.382 3.418.9 5.858-.485 2.47-1.574 4.554-3.16 6.064-.29.302-.6.585-.93.845-1.7 1.338-3.845 2.045-6.204 2.045H12.64L10.622 30H6.484l.315-1.447h1.44l2.02-9.46h5.882c5.633 0 10.342-3.47 11.602-9.373C29.174 3.038 24.382 0 20.262 0H6.222L.002 28.553h4.75L4.002 32h8.238l2.018-9.46h5.883c5.634 0 10.343-3.47 11.603-9.373 1.054-4.928-1.275-7.873-4.222-9.08zM13.198 5.815h4.035c2.018 0 3.363 1.736 2.775 3.905-.504 2.17-2.606 3.905-4.707 3.905h-3.866l1.765-7.81z"/>
</symbol><symbol id="icon-phone" viewBox="0 0 32 32">
    <path d="M22 20c-2 2-2 4-4 4s-4-2-6-4-4-4-4-6 2-2 4-4-4-8-6-8-6 6-6 6c0 4 4.11 12.11 8 16s12 8 16 8c0 0 6-4 6-6s-6-8-8-6z"/>
</symbol><symbol id="icon-spinner" viewBox="0 0 32 32">
    <path stroke="#449FDB" d="M0 0"/>
    <path d="M16 0C7.29 0 .204 6.96.005 15.624.19 8.066 5.937 2 13 2c7.18 0 13 6.268 13 14 0 1.657 1.343 3 3 3s3-1.343 3-3c0-8.837-7.163-16-16-16zm0 32c8.71 0 15.796-6.96 15.995-15.624C31.81 23.934 26.063 30 19 30c-7.18 0-13-6.268-13-14 0-1.657-1.343-3-3-3s-3 1.343-3 3c0 8.837 7.163 16 16 16z"/>
</symbol><symbol id="icon-spinner2" viewBox="0 0 32 32">
    <path d="M32 16c-.04-2.09-.493-4.172-1.33-6.077-.835-1.906-2.047-3.633-3.534-5.06-1.486-1.428-3.248-2.557-5.156-3.302C20.074.814 18.024.457 16 .5c-2.026.04-4.043.48-5.886 1.292-1.845.81-3.517 1.983-4.898 3.424S2.742 8.363 2.023 10.21C1.3 12.056.956 14.04 1 16c.04 1.96.468 3.91 1.254 5.694.784 1.784 1.92 3.4 3.316 4.736 1.394 1.336 3.046 2.39 4.832 3.085 1.785.697 3.7 1.028 5.598.985 1.897-.04 3.78-.455 5.502-1.216 1.723-.76 3.285-1.86 4.574-3.208 1.29-1.348 2.308-2.945 2.977-4.67.407-1.046.684-2.137.83-3.244.038.002.077.004.117.004 1.105 0 2-.895 2-2 0-.056-.003-.112-.007-.167H32zm-3.178 5.31c-.733 1.664-1.796 3.17-3.1 4.413s-2.843 2.225-4.507 2.868c-1.663.647-3.447.953-5.215.91-1.77-.04-3.52-.43-5.12-1.14-1.6-.708-3.052-1.734-4.25-2.99s-2.14-2.744-2.76-4.347C3.25 19.42 2.96 17.703 3 16c.04-1.706.417-3.39 1.102-4.93.683-1.54 1.672-2.936 2.883-4.087S9.627 4.925 11.17 4.33c1.54-.595 3.19-.874 4.83-.832 1.642.04 3.258.404 4.737 1.064 1.48.658 2.82 1.61 3.926 2.774s1.975 2.54 2.543 4.02c.57 1.482.837 3.065.794 4.642h.007c-.005.055-.007.11-.007.167 0 1.032.78 1.88 1.784 1.988-.195 1.088-.517 2.15-.962 3.156z"/>
</symbol><symbol id="icon-twitter" viewBox="-289 381 32 32">
    <path class="st0" d="M-262.3 381h-21.3c-2.9 0-5.3 2.4-5.3 5.3v21.3c0 2.9 2.4 5.3 5.3 5.3h21.3c2.9 0 5.3-2.4 5.3-5.3v-21.3c0-2.9-2.4-5.3-5.3-5.3zm-.5 10.7v.7c0 7.1-5.3 15.2-15 15.2-3 0-5.7-.9-8.1-2.4.4 0 .8.1 1.3.1 2.5 0 4.7-.9 6.5-2.3-2.3 0-4.2-1.6-4.9-3.7.3.1.6.1 1 .1.5 0 .9-.1 1.4-.2-2.4-.5-4.2-2.7-4.2-5.2v-.1c.7.4 1.5.6 2.4.7-1.4-1-2.3-2.6-2.3-4.5 0-1 .3-1.9.7-2.7 2.6 3.2 6.5 5.4 10.8 5.6-.1-.4-.1-.8-.1-1.2 0-3 2.4-5.3 5.3-5.3 1.5 0 2.9.6 3.8 1.7 1.2-.2 2.3-.7 3.3-1.3-.4 1.2-1.2 2.3-2.3 3 1.1-.1 2.1-.4 3-.8-.7.9-1.6 1.8-2.6 2.6z"/>
</symbol></svg>